<?xml version="1.0" encoding="UTF-8"?>
<svg xmlns="http://www.w3.org/2000/svg" xmlns:xlink="http://www.w3.org/1999/xlink" width="1235px" height="650px" viewBox="0 0 925 487" version="1.1">
<g id="surface1">
<rect x="0" y="0" width="925" height="487" style="fill:rgb(69.803922%,13.333333%,20.392157%);fill-opacity:1;stroke:none;"/>
<path style="fill-rule:nonzero;fill:rgb(0%,0%,0%);fill-opacity:1;stroke-width:300;stroke-linecap:butt;stroke-linejoin:miter;stroke:rgb(100%,100%,100%);stroke-opacity:1;stroke-miterlimit:4;" d="M 0 449.992781 L 7410 449.992781 M 7410 1050.014438 L 0 1050.014438 M 0 1650.004813 L 7410 1650.004813 M 7410 2249.995187 L 0 2249.995187 M 0 2849.985562 L 7410 2849.985562 M 7410 3450.007219 L 0 3450.007219 " transform="matrix(0.124831,0,0,0.124872,0,0)"/>
<path style=" stroke:none;fill-rule:nonzero;fill:rgb(23.529412%,23.137255%,43.137255%);fill-opacity:1;" d="M 0 0 L 370 0 L 370 262.230469 L 0 262.230469 Z M 0 0 "/>
<path style=" stroke:none;fill-rule:nonzero;fill:rgb(100%,100%,100%);fill-opacity:1;" d="M 30.832031 11.238281 L 39.636719 38.347656 L 16.585938 21.59375 L 45.078125 21.59375 L 22.027344 38.347656 Z M 30.832031 11.238281 "/>
<path style=" stroke:none;fill-rule:nonzero;fill:rgb(100%,100%,100%);fill-opacity:1;" d="M 30.832031 63.683594 L 39.636719 90.792969 L 16.585938 74.039062 L 45.078125 74.039062 L 22.027344 90.792969 Z M 30.832031 63.683594 "/>
<path style=" stroke:none;fill-rule:nonzero;fill:rgb(100%,100%,100%);fill-opacity:1;" d="M 30.832031 116.128906 L 39.636719 143.238281 L 16.585938 126.484375 L 45.078125 126.484375 L 22.027344 143.238281 Z M 30.832031 116.128906 "/>
<path style=" stroke:none;fill-rule:nonzero;fill:rgb(100%,100%,100%);fill-opacity:1;" d="M 30.832031 168.578125 L 39.636719 195.683594 L 16.585938 178.929688 L 45.078125 178.929688 L 22.027344 195.683594 Z M 30.832031 168.578125 "/>
<path style=" stroke:none;fill-rule:nonzero;fill:rgb(100%,100%,100%);fill-opacity:1;" d="M 30.832031 221.023438 L 39.636719 248.128906 L 16.585938 231.378906 L 45.078125 231.378906 L 22.027344 248.128906 Z M 30.832031 221.023438 "/>
<path style=" stroke:none;fill-rule:nonzero;fill:rgb(100%,100%,100%);fill-opacity:1;" d="M 61.667969 37.460938 L 70.472656 64.570312 L 47.421875 47.816406 L 75.914062 47.816406 L 52.863281 64.570312 Z M 61.667969 37.460938 "/>
<path style=" stroke:none;fill-rule:nonzero;fill:rgb(100%,100%,100%);fill-opacity:1;" d="M 61.667969 89.90625 L 70.472656 117.015625 L 47.421875 100.261719 L 75.914062 100.261719 L 52.863281 117.015625 Z M 61.667969 89.90625 "/>
<path style=" stroke:none;fill-rule:nonzero;fill:rgb(100%,100%,100%);fill-opacity:1;" d="M 61.667969 142.355469 L 70.472656 169.460938 L 47.421875 152.707031 L 75.914062 152.707031 L 52.863281 169.460938 Z M 61.667969 142.355469 "/>
<path style=" stroke:none;fill-rule:nonzero;fill:rgb(100%,100%,100%);fill-opacity:1;" d="M 61.667969 194.800781 L 70.472656 221.90625 L 47.421875 205.152344 L 75.914062 205.152344 L 52.863281 221.90625 Z M 61.667969 194.800781 "/>
<path style=" stroke:none;fill-rule:nonzero;fill:rgb(100%,100%,100%);fill-opacity:1;" d="M 92.5 11.238281 L 101.304688 38.347656 L 78.253906 21.59375 L 106.746094 21.59375 L 83.695312 38.347656 Z M 92.5 11.238281 "/>
<path style=" stroke:none;fill-rule:nonzero;fill:rgb(100%,100%,100%);fill-opacity:1;" d="M 92.5 63.683594 L 101.304688 90.792969 L 78.253906 74.039062 L 106.746094 74.039062 L 83.695312 90.792969 Z M 92.5 63.683594 "/>
<path style=" stroke:none;fill-rule:nonzero;fill:rgb(100%,100%,100%);fill-opacity:1;" d="M 92.5 116.128906 L 101.304688 143.238281 L 78.253906 126.484375 L 106.746094 126.484375 L 83.695312 143.238281 Z M 92.5 116.128906 "/>
<path style=" stroke:none;fill-rule:nonzero;fill:rgb(100%,100%,100%);fill-opacity:1;" d="M 92.5 168.578125 L 101.304688 195.683594 L 78.253906 178.929688 L 106.746094 178.929688 L 83.695312 195.683594 Z M 92.5 168.578125 "/>
<path style=" stroke:none;fill-rule:nonzero;fill:rgb(100%,100%,100%);fill-opacity:1;" d="M 92.5 221.023438 L 101.304688 248.128906 L 78.253906 231.378906 L 106.746094 231.378906 L 83.695312 248.128906 Z M 92.5 221.023438 "/>
<path style=" stroke:none;fill-rule:nonzero;fill:rgb(100%,100%,100%);fill-opacity:1;" d="M 123.332031 37.460938 L 132.136719 64.570312 L 109.085938 47.816406 L 137.578125 47.816406 L 114.527344 64.570312 Z M 123.332031 37.460938 "/>
<path style=" stroke:none;fill-rule:nonzero;fill:rgb(100%,100%,100%);fill-opacity:1;" d="M 123.332031 89.90625 L 132.136719 117.015625 L 109.085938 100.261719 L 137.578125 100.261719 L 114.527344 117.015625 Z M 123.332031 89.90625 "/>
<path style=" stroke:none;fill-rule:nonzero;fill:rgb(100%,100%,100%);fill-opacity:1;" d="M 123.332031 142.355469 L 132.136719 169.460938 L 109.085938 152.707031 L 137.578125 152.707031 L 114.527344 169.460938 Z M 123.332031 142.355469 "/>
<path style=" stroke:none;fill-rule:nonzero;fill:rgb(100%,100%,100%);fill-opacity:1;" d="M 123.332031 194.800781 L 132.136719 221.90625 L 109.085938 205.152344 L 137.578125 205.152344 L 114.527344 221.90625 Z M 123.332031 194.800781 "/>
<path style=" stroke:none;fill-rule:nonzero;fill:rgb(100%,100%,100%);fill-opacity:1;" d="M 154.167969 11.238281 L 162.972656 38.347656 L 139.921875 21.59375 L 168.414062 21.59375 L 145.363281 38.347656 Z M 154.167969 11.238281 "/>
<path style=" stroke:none;fill-rule:nonzero;fill:rgb(100%,100%,100%);fill-opacity:1;" d="M 154.167969 63.683594 L 162.972656 90.792969 L 139.921875 74.039062 L 168.414062 74.039062 L 145.363281 90.792969 Z M 154.167969 63.683594 "/>
<path style=" stroke:none;fill-rule:nonzero;fill:rgb(100%,100%,100%);fill-opacity:1;" d="M 154.167969 116.128906 L 162.972656 143.238281 L 139.921875 126.484375 L 168.414062 126.484375 L 145.363281 143.238281 Z M 154.167969 116.128906 "/>
<path style=" stroke:none;fill-rule:nonzero;fill:rgb(100%,100%,100%);fill-opacity:1;" d="M 154.167969 168.578125 L 162.972656 195.683594 L 139.921875 178.929688 L 168.414062 178.929688 L 145.363281 195.683594 Z M 154.167969 168.578125 "/>
<path style=" stroke:none;fill-rule:nonzero;fill:rgb(100%,100%,100%);fill-opacity:1;" d="M 154.167969 221.023438 L 162.972656 248.128906 L 139.921875 231.378906 L 168.414062 231.378906 L 145.363281 248.128906 Z M 154.167969 221.023438 "/>
<path style=" stroke:none;fill-rule:nonzero;fill:rgb(100%,100%,100%);fill-opacity:1;" d="M 185 37.460938 L 193.804688 64.570312 L 170.753906 47.816406 L 199.246094 47.816406 L 176.195312 64.570312 Z M 185 37.460938 "/>
<path style=" stroke:none;fill-rule:nonzero;fill:rgb(100%,100%,100%);fill-opacity:1;" d="M 185 89.90625 L 193.804688 117.015625 L 170.753906 100.261719 L 199.246094 100.261719 L 176.195312 117.015625 Z M 185 89.90625 "/>
<path style=" stroke:none;fill-rule:nonzero;fill:rgb(100%,100%,100%);fill-opacity:1;" d="M 185 142.355469 L 193.804688 169.460938 L 170.753906 152.707031 L 199.246094 152.707031 L 176.195312 169.460938 Z M 185 142.355469 "/>
<path style=" stroke:none;fill-rule:nonzero;fill:rgb(100%,100%,100%);fill-opacity:1;" d="M 185 194.800781 L 193.804688 221.90625 L 170.753906 205.152344 L 199.246094 205.152344 L 176.195312 221.90625 Z M 185 194.800781 "/>
<path style=" stroke:none;fill-rule:nonzero;fill:rgb(100%,100%,100%);fill-opacity:1;" d="M 215.832031 11.238281 L 224.636719 38.347656 L 201.585938 21.59375 L 230.078125 21.59375 L 207.027344 38.347656 Z M 215.832031 11.238281 "/>
<path style=" stroke:none;fill-rule:nonzero;fill:rgb(100%,100%,100%);fill-opacity:1;" d="M 215.832031 63.683594 L 224.636719 90.792969 L 201.585938 74.039062 L 230.078125 74.039062 L 207.027344 90.792969 Z M 215.832031 63.683594 "/>
<path style=" stroke:none;fill-rule:nonzero;fill:rgb(100%,100%,100%);fill-opacity:1;" d="M 215.832031 116.128906 L 224.636719 143.238281 L 201.585938 126.484375 L 230.078125 126.484375 L 207.027344 143.238281 Z M 215.832031 116.128906 "/>
<path style=" stroke:none;fill-rule:nonzero;fill:rgb(100%,100%,100%);fill-opacity:1;" d="M 215.832031 168.578125 L 224.636719 195.683594 L 201.585938 178.929688 L 230.078125 178.929688 L 207.027344 195.683594 Z M 215.832031 168.578125 "/>
<path style=" stroke:none;fill-rule:nonzero;fill:rgb(100%,100%,100%);fill-opacity:1;" d="M 215.832031 221.023438 L 224.636719 248.128906 L 201.585938 231.378906 L 230.078125 231.378906 L 207.027344 248.128906 Z M 215.832031 221.023438 "/>
<path style=" stroke:none;fill-rule:nonzero;fill:rgb(100%,100%,100%);fill-opacity:1;" d="M 246.667969 37.460938 L 255.472656 64.570312 L 232.421875 47.816406 L 260.914062 47.816406 L 237.863281 64.570312 Z M 246.667969 37.460938 "/>
<path style=" stroke:none;fill-rule:nonzero;fill:rgb(100%,100%,100%);fill-opacity:1;" d="M 246.667969 89.90625 L 255.472656 117.015625 L 232.421875 100.261719 L 260.914062 100.261719 L 237.863281 117.015625 Z M 246.667969 89.90625 "/>
<path style=" stroke:none;fill-rule:nonzero;fill:rgb(100%,100%,100%);fill-opacity:1;" d="M 246.667969 142.355469 L 255.472656 169.460938 L 232.421875 152.707031 L 260.914062 152.707031 L 237.863281 169.460938 Z M 246.667969 142.355469 "/>
<path style=" stroke:none;fill-rule:nonzero;fill:rgb(100%,100%,100%);fill-opacity:1;" d="M 246.667969 194.800781 L 255.472656 221.90625 L 232.421875 205.152344 L 260.914062 205.152344 L 237.863281 221.90625 Z M 246.667969 194.800781 "/>
<path style=" stroke:none;fill-rule:nonzero;fill:rgb(100%,100%,100%);fill-opacity:1;" d="M 277.5 11.238281 L 286.304688 38.347656 L 263.253906 21.59375 L 291.746094 21.59375 L 268.695312 38.347656 Z M 277.5 11.238281 "/>
<path style=" stroke:none;fill-rule:nonzero;fill:rgb(100%,100%,100%);fill-opacity:1;" d="M 277.5 63.683594 L 286.304688 90.792969 L 263.253906 74.039062 L 291.746094 74.039062 L 268.695312 90.792969 Z M 277.5 63.683594 "/>
<path style=" stroke:none;fill-rule:nonzero;fill:rgb(100%,100%,100%);fill-opacity:1;" d="M 277.5 116.128906 L 286.304688 143.238281 L 263.253906 126.484375 L 291.746094 126.484375 L 268.695312 143.238281 Z M 277.5 116.128906 "/>
<path style=" stroke:none;fill-rule:nonzero;fill:rgb(100%,100%,100%);fill-opacity:1;" d="M 277.5 168.578125 L 286.304688 195.683594 L 263.253906 178.929688 L 291.746094 178.929688 L 268.695312 195.683594 Z M 277.5 168.578125 "/>
<path style=" stroke:none;fill-rule:nonzero;fill:rgb(100%,100%,100%);fill-opacity:1;" d="M 277.5 221.023438 L 286.304688 248.128906 L 263.253906 231.378906 L 291.746094 231.378906 L 268.695312 248.128906 Z M 277.5 221.023438 "/>
<path style=" stroke:none;fill-rule:nonzero;fill:rgb(100%,100%,100%);fill-opacity:1;" d="M 308.332031 37.460938 L 317.136719 64.570312 L 294.085938 47.816406 L 322.578125 47.816406 L 299.527344 64.570312 Z M 308.332031 37.460938 "/>
<path style=" stroke:none;fill-rule:nonzero;fill:rgb(100%,100%,100%);fill-opacity:1;" d="M 308.332031 89.90625 L 317.136719 117.015625 L 294.085938 100.261719 L 322.578125 100.261719 L 299.527344 117.015625 Z M 308.332031 89.90625 "/>
<path style=" stroke:none;fill-rule:nonzero;fill:rgb(100%,100%,100%);fill-opacity:1;" d="M 308.332031 142.355469 L 317.136719 169.460938 L 294.085938 152.707031 L 322.578125 152.707031 L 299.527344 169.460938 Z M 308.332031 142.355469 "/>
<path style=" stroke:none;fill-rule:nonzero;fill:rgb(100%,100%,100%);fill-opacity:1;" d="M 308.332031 194.800781 L 317.136719 221.90625 L 294.085938 205.152344 L 322.578125 205.152344 L 299.527344 221.90625 Z M 308.332031 194.800781 "/>
<path style=" stroke:none;fill-rule:nonzero;fill:rgb(100%,100%,100%);fill-opacity:1;" d="M 339.167969 11.238281 L 347.972656 38.347656 L 324.921875 21.59375 L 353.414062 21.59375 L 330.363281 38.347656 Z M 339.167969 11.238281 "/>
<path style=" stroke:none;fill-rule:nonzero;fill:rgb(100%,100%,100%);fill-opacity:1;" d="M 339.167969 63.683594 L 347.972656 90.792969 L 324.921875 74.039062 L 353.414062 74.039062 L 330.363281 90.792969 Z M 339.167969 63.683594 "/>
<path style=" stroke:none;fill-rule:nonzero;fill:rgb(100%,100%,100%);fill-opacity:1;" d="M 339.167969 116.128906 L 347.972656 143.238281 L 324.921875 126.484375 L 353.414062 126.484375 L 330.363281 143.238281 Z M 339.167969 116.128906 "/>
<path style=" stroke:none;fill-rule:nonzero;fill:rgb(100%,100%,100%);fill-opacity:1;" d="M 339.167969 168.578125 L 347.972656 195.683594 L 324.921875 178.929688 L 353.414062 178.929688 L 330.363281 195.683594 Z M 339.167969 168.578125 "/>
<path style=" stroke:none;fill-rule:nonzero;fill:rgb(100%,100%,100%);fill-opacity:1;" d="M 339.167969 221.023438 L 347.972656 248.128906 L 324.921875 231.378906 L 353.414062 231.378906 L 330.363281 248.128906 Z M 339.167969 221.023438 "/>
</g>
</svg>
