<?xml version="1.0" standalone="no"?>
<!DOCTYPE svg PUBLIC "-//W3C//DTD SVG 20010904//EN"
 "http://www.w3.org/TR/2001/REC-SVG-20010904/DTD/svg10.dtd">
<svg version="1.0" xmlns="http://www.w3.org/2000/svg"
 width="900.000000pt" height="1840.000000pt" viewBox="0 0 900.000000 1840.000000"
 preserveAspectRatio="xMidYMid meet">

<g transform="translate(0.000000,1840.000000) scale(0.100000,-0.100000)"
fill="#000000" stroke="none">
<path d="M1832 16508 c-7 -7 -12 -9 -12 -5 0 4 -13 -8 -30 -26 -46 -53 -72
-152 -73 -277 0 -112 11 -358 18 -400 3 -14 7 -72 10 -130 7 -138 12 -179 41
-340 43 -232 54 -295 54 -307 0 -20 30 -43 56 -43 13 0 24 -4 24 -10 0 -5 19
-10 43 -10 40 0 239 -33 281 -46 11 -4 33 -15 50 -25 l31 -19 -32 6 c-37 7
-45 -9 -13 -26 23 -13 26 -30 5 -30 -8 0 -34 6 -57 14 -24 7 -70 19 -103 27
-33 7 -68 22 -77 32 -13 14 -25 18 -44 13 -15 -4 -23 -3 -20 3 7 11 -17 21
-50 21 -15 0 -24 6 -24 15 0 8 -4 15 -9 15 -5 0 -16 3 -24 6 -12 4 -15 -12
-15 -103 -1 -96 -19 -224 -36 -252 -4 -5 -2 -12 2 -15 5 -3 7 -20 5 -38 -9
-82 -9 -104 3 -116 14 -13 12 -24 -16 -87 -16 -36 -23 -75 -34 -190 -13 -131
-34 -256 -45 -269 -16 -19 -6 -53 18 -61 20 -6 59 -45 45 -45 -5 0 -18 7 -28
15 -28 21 -56 19 -56 -4 0 -10 -7 -22 -16 -25 -10 -4 -13 -13 -9 -25 10 -32
-6 -72 -32 -82 -20 -7 -23 -12 -14 -23 7 -8 24 -17 38 -21 17 -4 22 -10 16
-16 -6 -6 -19 -6 -37 1 -38 14 -53 13 -38 -2 7 -7 12 -19 12 -28 0 -21 -23
-70 -33 -70 -5 0 -5 -9 -2 -20 3 -11 3 -20 -2 -20 -4 0 -9 -18 -10 -41 -2 -22
-7 -47 -12 -56 -5 -9 -5 -29 -1 -44 5 -17 4 -31 -3 -38 -8 -8 -8 -11 2 -11 7
0 9 -5 6 -10 -4 -6 -2 -17 4 -24 9 -10 8 -26 -1 -60 -10 -38 -10 -51 1 -68 12
-19 12 -24 -2 -32 -13 -9 -13 -12 0 -33 8 -13 13 -32 10 -44 -3 -12 0 -22 9
-26 16 -6 10 -41 -11 -58 -20 -16 -26 -45 -11 -45 14 0 16 -23 4 -35 -3 -4 -2
-22 4 -41 5 -19 6 -43 3 -54 -3 -10 -1 -22 6 -25 8 -6 8 -10 -2 -16 -10 -6
-10 -13 0 -36 9 -19 9 -29 2 -31 -6 -2 -9 -8 -5 -13 3 -5 -2 -12 -11 -15 -14
-6 -13 -10 6 -30 12 -13 19 -24 15 -24 -5 0 -3 -6 4 -14 9 -12 7 -17 -9 -28
-27 -16 -26 -24 2 -32 15 -4 18 -9 10 -14 -8 -5 -9 -19 -3 -47 9 -41 5 -59
-11 -50 -5 4 -9 2 -9 -4 0 -5 9 -12 19 -16 25 -8 35 -38 22 -64 -8 -14 -7 -22
4 -31 7 -6 12 -17 9 -25 -3 -7 3 -19 14 -26 20 -15 45 -77 40 -100 -2 -9 8
-15 30 -17 43 -4 31 -22 -16 -22 l-37 -1 40 -21 c22 -12 72 -29 110 -40 98
-25 414 -76 575 -92 30 -3 116 -14 190 -24 76 -11 140 -16 146 -11 6 5 37 -1
74 -16 38 -15 72 -22 87 -19 35 9 93 -4 93 -21 0 -12 14 -15 58 -15 32 0 62
-4 68 -9 5 -5 27 -11 49 -12 52 -3 58 -7 40 -26 -16 -15 -20 -15 -107 4 -16 3
-28 9 -28 14 0 5 -21 8 -47 7 -45 -2 -276 17 -351 28 -35 5 -35 23 1 25 32 2
-83 25 -273 54 -91 14 -187 30 -213 35 -27 6 -61 10 -77 10 -36 0 -201 32
-310 60 -83 22 -111 20 -76 -6 14 -10 16 -14 5 -14 -11 0 -11 -2 -1 -9 7 -4
14 -24 15 -45 2 -43 9 -46 182 -71 61 -9 126 -20 145 -25 120 -30 628 -95 550
-70 -22 7 -21 8 13 9 21 1 36 5 33 10 -14 23 113 17 169 -8 11 -5 51 -14 89
-21 39 -6 75 -14 80 -18 19 -11 46 -9 46 5 0 15 57 18 79 4 11 -7 9 -10 -8
-16 -11 -3 -21 -12 -21 -19 0 -25 64 -40 193 -45 16 -1 27 -7 27 -15 0 -17 42
-26 64 -14 9 5 16 19 16 31 0 13 5 28 11 34 19 19 -11 28 -91 28 -55 0 -74 3
-73 13 2 6 -7 12 -20 13 -14 0 -16 2 -7 6 8 2 29 11 47 19 17 8 36 14 42 14
17 0 14 10 -15 47 -24 31 -24 33 -5 33 11 0 32 -5 46 -12 19 -8 28 -9 37 0 8
8 5 14 -15 21 -43 16 -31 31 24 31 73 0 119 -30 68 -43 -20 -5 -20 -7 -6 -21
9 -9 30 -16 48 -16 31 0 32 -1 13 -15 -10 -8 -14 -15 -7 -15 7 0 10 -6 7 -14
-3 -9 3 -17 15 -21 12 -3 21 -12 21 -18 0 -7 12 -24 28 -37 15 -14 42 -54 61
-89 28 -54 31 -67 22 -88 -9 -19 -8 -25 4 -29 12 -5 7 -14 -20 -39 -19 -19
-35 -38 -35 -44 0 -7 24 -11 59 -11 33 0 63 -4 66 -10 4 -6 -5 -10 -19 -10
-22 0 -26 -4 -26 -30 0 -30 -1 -30 -55 -30 -32 0 -69 7 -87 16 -43 22 -178 9
-178 -17 0 -5 -8 -9 -17 -9 -15 0 -14 2 3 18 11 11 26 21 33 23 23 8 -17 39
-49 39 -16 0 -35 7 -44 15 -8 8 -20 15 -27 15 -7 0 -4 9 9 20 25 24 52 26 52
5 0 -19 16 -19 24 0 3 8 12 12 21 9 19 -8 77 15 69 27 -3 5 -18 9 -34 9 -16 0
-32 5 -35 10 -3 6 -1 10 4 10 6 0 11 5 11 10 0 6 -11 10 -25 10 -13 0 -28 7
-33 16 -6 10 -26 18 -51 20 -23 2 -51 10 -61 17 -19 13 -19 14 6 26 15 6 24
14 21 17 -3 3 -14 1 -25 -5 -11 -6 -22 -8 -24 -5 -5 4 -149 14 -223 15 -16 0
-43 5 -60 10 -18 5 -42 5 -60 0 -29 -9 -29 -9 -4 -10 35 -1 42 -11 21 -28 -12
-10 -14 -16 -4 -19 6 -3 10 -10 6 -15 -3 -5 33 -9 84 -9 93 0 102 -4 102 -46
0 -12 -4 -12 -20 -4 -11 6 -35 11 -52 11 -18 0 -58 1 -88 4 -36 2 -45 1 -25
-4 l30 -7 -30 -8 c-16 -4 -63 -10 -104 -12 -74 -4 -212 -24 -306 -46 -72 -16
-162 -60 -102 -49 5 1 37 4 70 6 81 6 197 17 222 20 11 2 69 11 128 20 107 17
177 14 146 -6 -7 -5 -32 -9 -54 -9 -65 0 -375 -67 -386 -84 -4 -4 -12 -5 -18
-2 -12 8 -119 -20 -138 -36 -7 -5 -17 -7 -23 -3 -29 18 -282 -57 -425 -126
-92 -45 -133 -74 -122 -86 5 -4 14 0 21 10 15 19 76 24 76 5 0 -6 -3 -9 -6 -5
-10 10 -125 -55 -141 -80 -13 -20 -12 -25 7 -51 20 -26 27 -29 61 -25 42 6 48
-1 23 -28 -11 -12 -25 -16 -53 -12 -25 3 -41 1 -46 -7 -6 -10 1 -11 29 -6 23
4 36 3 36 -4 0 -5 10 -10 22 -10 12 0 18 -3 15 -7 -4 -3 1 -15 10 -26 17 -19
17 -19 -3 -13 -13 4 -26 1 -34 -9 -7 -8 -21 -15 -31 -15 -11 0 -19 -4 -19 -10
0 -5 7 -10 15 -10 8 0 15 -6 15 -12 0 -9 3 -9 9 1 5 8 25 15 44 16 20 0 33 -3
30 -8 -3 -5 9 -6 28 -2 l34 7 -25 -18 c-47 -34 -48 -63 -2 -58 15 2 19 1 10
-2 -10 -3 -18 -12 -18 -21 0 -12 7 -14 30 -9 17 3 30 1 30 -4 0 -6 -4 -10 -10
-10 -19 0 -10 -29 13 -37 17 -6 11 -9 -33 -14 -30 -3 -63 -9 -72 -13 -14 -6
-18 -4 -18 10 0 16 -2 17 -10 4 -6 -9 -6 -18 0 -24 16 -16 11 -34 -11 -41 -15
-5 -18 -10 -10 -18 8 -8 1 -20 -26 -44 -39 -36 -67 -32 -33 5 15 16 17 22 7
22 -22 0 -34 -20 -46 -79 -6 -30 -16 -60 -21 -66 -5 -6 -10 -22 -12 -35 -2
-14 -7 -30 -10 -36 -9 -14 13 -145 23 -138 5 2 6 19 2 36 -6 28 -4 31 15 26
12 -3 23 -1 25 5 6 19 29 -4 24 -24 -3 -11 -2 -19 2 -19 7 0 41 -74 41 -90 0
-6 4 -10 9 -10 15 0 23 -51 10 -66 -9 -11 -6 -14 16 -14 27 0 27 -1 12 -18
-22 -24 -21 -35 1 -23 34 18 126 -16 135 -49 3 -11 1 -20 -4 -20 -5 0 -9 5 -9
12 0 6 -3 9 -6 6 -3 -4 0 -16 6 -28 10 -18 9 -25 -1 -32 -11 -7 -9 -8 4 -4 10
3 30 3 44 0 19 -5 22 -9 11 -16 -9 -7 -5 -8 14 -5 20 3 25 0 21 -11 -5 -11 -1
-13 15 -7 13 4 22 2 22 -4 0 -6 7 -11 16 -11 12 0 15 -7 12 -28 -4 -27 -1 -29
29 -30 20 -1 31 3 28 8 -3 6 -2 10 4 10 20 0 21 -20 1 -40 -17 -17 -18 -22 -6
-26 8 -3 17 -12 20 -19 3 -8 0 -12 -7 -9 -7 2 -18 -5 -25 -16 -13 -22 -3 -27
16 -8 9 9 12 9 12 0 0 -9 5 -10 19 -3 14 8 20 7 25 -4 8 -22 -4 -45 -20 -38
-8 3 -14 2 -13 -3 1 -5 -1 -17 -6 -27 -7 -17 -8 -17 -21 0 -12 16 -13 16 -14
2 0 -22 26 -44 35 -29 9 15 25 12 25 -5 0 -8 -7 -15 -15 -15 -8 0 -15 -7 -15
-16 0 -13 7 -11 34 10 49 37 51 32 9 -14 -20 -21 -41 -36 -46 -33 -5 3 -6 -3
-2 -15 7 -24 -21 -91 -41 -99 -7 -2 -10 -11 -7 -19 3 -8 1 -14 -4 -14 -6 0
-15 -10 -22 -22 -12 -23 -9 -9 5 26 6 15 4 17 -6 11 -10 -6 -11 -2 -6 20 6 25
6 26 -9 11 -10 -9 -15 -23 -12 -31 3 -7 0 -18 -7 -24 -26 -21 -28 30 -3 58
l22 25 -25 -17 c-55 -37 -65 -40 -36 -8 16 17 27 34 23 37 -4 4 7 22 23 41 17
18 30 38 30 42 0 5 11 12 25 15 28 7 36 46 10 46 -8 0 -15 -6 -15 -14 0 -8
-16 -20 -36 -26 -25 -9 -34 -16 -30 -27 7 -18 -12 -45 -25 -37 -5 3 -9 -2 -9
-11 0 -11 -5 -15 -15 -12 -8 4 -17 2 -20 -2 -2 -5 -14 -11 -25 -14 -21 -5 -21
-5 -5 20 9 13 14 27 12 30 -3 2 -10 -5 -17 -16 -6 -12 -16 -21 -22 -21 -7 0
-7 4 1 13 6 8 8 17 4 20 -3 4 0 14 7 22 11 14 10 17 -10 22 -22 6 -22 7 -5 20
16 11 17 13 3 13 -9 0 -20 -5 -23 -10 -3 -5 -12 -10 -18 -9 -9 0 -9 2 0 5 17
7 4 34 -16 34 -9 0 -27 -12 -41 -26 -28 -30 -42 -14 -14 17 14 16 15 19 2 19
-9 0 -23 -10 -32 -22 -11 -14 -9 -8 3 15 26 47 26 46 1 40 -11 -3 -20 -9 -20
-14 0 -5 -11 -15 -25 -21 -16 -7 -24 -17 -20 -26 3 -9 0 -12 -9 -9 -10 4 -13
1 -10 -7 4 -10 -2 -12 -20 -9 -27 6 -34 -9 -17 -36 7 -11 11 -10 20 5 6 11 11
14 11 7 0 -6 3 -19 6 -28 4 -10 2 -15 -7 -13 -11 2 -15 -19 -16 -102 -3 -122
-7 -163 -22 -244 -6 -33 -9 -62 -6 -64 3 -3 0 -11 -6 -19 -8 -8 -8 -17 -2 -25
13 -16 1 -142 -21 -225 -8 -34 -18 -85 -22 -114 -4 -30 -13 -60 -21 -67 -7 -7
-13 -26 -13 -42 0 -16 -5 -41 -11 -57 -6 -15 -12 -55 -14 -88 -2 -33 -5 -60
-5 -60 -1 0 -3 -21 -5 -47 -3 -37 -1 -46 10 -42 8 3 17 14 20 25 4 10 13 19
21 19 8 0 14 5 14 11 0 6 9 8 23 4 18 -5 19 -4 7 5 -12 10 -10 11 10 6 14 -3
31 -6 38 -6 7 0 10 -5 7 -10 -3 -5 -15 -10 -25 -10 -10 0 -25 -7 -34 -15 -8
-8 -18 -15 -21 -15 -4 0 -20 -9 -36 -21 -16 -11 -29 -17 -29 -12 0 4 -9 -7
-20 -25 -11 -18 -20 -42 -20 -54 0 -20 1 -20 18 -5 10 10 29 17 43 16 23 -1
23 -1 -4 -11 -32 -12 -36 -28 -6 -28 18 0 19 -2 9 -15 -7 -8 -16 -12 -21 -9
-5 3 -12 -2 -15 -11 -4 -9 -13 -14 -20 -11 -8 3 -11 0 -7 -9 3 -9 -3 -18 -13
-22 -11 -3 -22 -11 -26 -17 -10 -14 -10 -44 0 -31 12 17 62 36 62 24 0 -6 9
-8 20 -4 30 9 26 -19 -5 -33 -14 -6 -31 -9 -39 -6 -8 3 -25 -1 -36 -9 l-21
-15 24 -6 c16 -4 45 3 82 20 70 32 82 26 17 -9 -64 -35 -105 -50 -96 -36 4 7
-2 9 -17 7 -12 -1 -24 -9 -27 -16 -2 -8 2 -10 15 -5 14 5 13 1 -6 -20 -31 -34
-23 -44 12 -17 l26 21 -2 -34 -3 -35 38 14 c56 19 46 2 -14 -27 -31 -14 -55
-33 -60 -47 -7 -22 -7 -22 22 -7 16 8 37 15 47 15 10 0 35 9 56 20 45 24 57
25 57 4 0 -9 5 -12 12 -8 7 5 8 3 4 -5 -5 -7 -14 -10 -22 -7 -7 3 -26 -1 -41
-9 -15 -8 -39 -15 -53 -16 -17 -1 -19 -3 -7 -6 18 -5 24 -23 7 -23 -13 0 -84
-69 -77 -76 3 -3 15 0 27 6 12 6 24 9 27 6 8 -8 -8 -27 -30 -35 -11 -4 -16
-10 -10 -14 5 -3 22 1 37 9 16 7 33 14 40 14 10 -1 -1 -10 -65 -62 -30 -25
-60 -39 -69 -33 -6 4 -10 1 -10 -4 0 -6 -10 -11 -23 -11 -12 0 -28 -9 -35 -20
-10 -16 -10 -20 2 -20 8 0 16 7 19 14 3 8 23 18 44 21 21 3 45 10 55 15 28 15
33 -21 6 -42 l-23 -18 26 0 c15 0 29 7 33 15 3 9 20 23 38 31 18 8 52 30 76
49 44 36 62 43 62 25 0 -5 -4 -10 -10 -10 -5 0 -10 -7 -10 -15 0 -8 -6 -12
-13 -9 -8 3 -20 -3 -28 -12 -13 -15 -11 -16 11 -9 24 7 24 7 5 -8 -13 -10 -22
-12 -26 -5 -4 6 -27 -3 -58 -23 -49 -32 -57 -46 -53 -92 1 -10 -9 -22 -22 -28
-24 -11 -39 -34 -51 -76 -5 -20 -2 -23 19 -23 18 0 41 16 76 52 27 28 50 46
50 40 0 -7 -7 -15 -16 -19 -8 -3 -13 -12 -10 -20 6 -15 -40 -62 -62 -63 -7 0
-10 -4 -7 -10 4 -6 -5 -10 -20 -10 -15 0 -24 -4 -20 -10 8 -13 -28 -13 -42 1
-15 15 -68 -32 -60 -55 6 -14 10 -15 27 -4 11 7 18 19 15 27 -4 10 2 8 16 -5
12 -10 19 -13 15 -6 -5 8 1 12 18 12 35 0 78 21 72 36 -3 7 6 15 19 18 13 3
31 13 39 22 11 10 16 11 16 3 0 -6 -11 -22 -26 -35 -22 -22 -23 -24 -6 -24 11
0 25 7 32 15 7 8 20 15 29 15 13 -1 13 -3 -4 -17 l-20 -16 20 8 c11 4 27 8 37
9 9 1 23 8 32 15 24 20 19 4 -10 -34 -27 -36 -72 -70 -81 -61 -3 3 8 16 23 30
l29 25 -31 -8 c-20 -6 -36 -5 -42 1 -11 11 -35 2 -28 -11 3 -3 -5 -15 -17 -24
-74 -59 -74 -59 -49 -54 30 7 28 2 -14 -27 -33 -22 -34 -25 -17 -35 16 -9 16
-12 3 -21 -8 -5 -12 -10 -9 -10 6 0 114 62 134 77 6 4 15 9 20 9 6 1 21 5 35
9 21 5 19 3 -9 -15 -18 -11 -47 -34 -65 -50 -17 -17 -34 -30 -39 -30 -4 0 -28
-10 -52 -21 -49 -23 -56 -36 -10 -19 50 19 48 -5 -4 -55 -53 -51 -62 -83 -10
-36 17 16 49 34 72 41 23 7 63 30 89 52 30 25 48 34 48 25 0 -8 -14 -26 -32
-41 -17 -14 -28 -26 -23 -26 5 0 21 12 36 26 20 19 29 22 34 13 5 -8 4 -10 -3
-5 -8 5 -14 -7 -18 -34 -5 -30 -14 -45 -35 -57 -23 -14 -45 -50 -35 -60 1 -2
16 9 32 24 16 15 35 26 42 25 6 -2 12 1 12 5 0 5 9 14 20 21 44 27 16 -8 -37
-49 -79 -59 -162 -138 -141 -135 10 1 21 5 24 9 11 10 24 9 24 -3 0 -5 -7 -10
-15 -10 -9 0 -19 -8 -22 -17 -4 -10 -11 -21 -17 -25 -6 -4 -8 -10 -4 -13 7 -7
99 41 109 57 3 5 10 9 15 9 5 -1 9 3 9 8 0 5 4 13 9 18 5 5 6 3 2 -4 -12 -22
5 -14 41 17 18 17 39 30 46 30 15 0 -102 -108 -125 -116 -10 -3 -18 -12 -18
-20 0 -8 4 -12 10 -9 5 3 10 1 10 -4 0 -6 -5 -11 -11 -11 -11 0 -48 -40 -49
-53 0 -4 11 0 24 8 50 33 34 -29 -18 -66 -16 -12 3 -39 28 -39 16 0 32 11 46
30 12 16 28 30 37 30 11 0 7 -9 -13 -29 -41 -41 -51 -54 -58 -82 -5 -18 8 -9
49 36 44 46 55 54 50 35 -4 -14 -18 -36 -31 -51 -26 -28 -33 -49 -9 -29 20 17
20 -4 -1 -24 -8 -9 -24 -21 -35 -27 -11 -5 -17 -15 -13 -20 4 -6 13 -4 24 6
28 25 36 -2 9 -31 -18 -19 -19 -24 -6 -24 8 0 22 7 31 15 17 17 46 20 46 5 0
-5 -5 -10 -12 -10 -6 0 -8 -3 -4 -7 3 -4 -10 -24 -31 -45 -24 -24 -32 -38 -22
-38 20 0 159 137 179 176 8 16 17 31 20 34 3 3 18 22 34 44 26 34 30 36 39 21
7 -13 5 -20 -7 -27 -9 -5 -16 -18 -16 -28 0 -10 -4 -21 -9 -25 -5 -3 -12 -18
-16 -34 -4 -20 -24 -43 -61 -71 -30 -22 -55 -46 -55 -53 -2 -24 -5 -33 -18
-72 -7 -22 -20 -48 -29 -58 -8 -9 -12 -20 -9 -23 7 -7 87 52 100 73 9 15 37
18 37 4 0 -5 -7 -14 -15 -21 -8 -7 -13 -16 -10 -20 3 -5 -1 -15 -9 -22 -14
-14 -20 -88 -7 -88 12 1 41 27 41 38 0 10 30 32 44 32 3 0 6 -13 6 -30 0 -31
23 -42 33 -16 6 15 47 42 47 31 0 -4 -23 -29 -52 -56 -28 -27 -46 -49 -39 -49
9 0 9 -5 1 -20 -11 -20 -10 -20 12 -8 39 22 80 58 67 58 -7 0 8 22 34 48 26
26 47 53 47 60 0 13 16 16 24 4 9 -14 -66 -156 -102 -194 -20 -21 -32 -41 -27
-45 4 -5 10 -2 12 5 6 16 30 16 36 0 8 -19 27 11 20 30 -5 10 0 10 15 -4 17
-15 19 -19 7 -28 -16 -13 -38 -66 -27 -66 4 0 22 14 40 31 18 17 36 28 39 25
4 -3 -9 -20 -27 -36 -18 -16 -31 -33 -27 -36 3 -4 13 1 22 10 23 23 30 20 32
-13 1 -18 -4 -31 -12 -35 -20 -7 -19 -26 0 -26 11 0 14 -7 10 -22 -3 -13 -7
-37 -8 -55 -2 -17 -9 -39 -17 -47 -17 -21 2 -21 61 -1 34 12 44 13 51 3 13
-21 9 -38 -8 -38 -11 0 -14 -5 -10 -16 3 -9 6 -17 6 -20 0 -2 6 -1 14 2 20 8
48 -25 41 -47 -5 -14 -1 -19 13 -19 14 0 22 12 32 50 7 28 17 50 22 50 9 0 3
-116 -8 -143 -5 -14 0 -17 25 -17 17 0 31 5 31 12 0 6 2 9 5 7 9 -10 -8 -47
-19 -43 -19 7 -32 -15 -45 -71 -6 -27 -13 -57 -16 -65 -2 -8 -4 -20 -4 -27 -1
-6 -10 -15 -22 -18 -16 -5 -18 -10 -8 -21 9 -11 8 -14 -3 -14 -7 0 -19 -13
-25 -30 -13 -34 -6 -74 11 -65 6 3 19 8 29 11 13 5 17 14 14 33 -2 14 -2 20 0
13 7 -19 23 -14 23 8 0 11 -4 20 -10 20 -5 0 -10 7 -10 15 0 8 7 15 15 15 8 0
15 -4 15 -10 0 -5 5 -10 10 -10 6 0 5 8 -2 21 -11 17 -10 22 5 33 10 8 17 26
17 44 0 17 6 37 13 44 6 7 13 31 14 53 2 22 7 41 13 43 5 2 10 10 10 17 0 7 9
23 19 36 l19 24 -5 -28 c-3 -15 -9 -30 -14 -33 -5 -3 -9 -18 -9 -34 0 -16 -4
-31 -8 -34 -19 -12 -11 -88 13 -136 25 -49 25 -50 5 -50 -17 0 -20 -7 -20 -40
0 -27 -4 -40 -13 -40 -18 0 -43 -53 -28 -58 6 -2 11 -10 11 -17 0 -9 8 -11 22
-7 19 5 18 1 -12 -36 -18 -23 -37 -42 -42 -42 -4 0 -8 -6 -8 -14 0 -7 -9 -25
-20 -39 -27 -34 -26 -41 15 -63 20 -10 39 -30 45 -47 10 -30 69 -105 131 -168
70 -70 83 -176 49 -374 -17 -100 -19 -112 -25 -190 l-5 -70 18 36 c10 20 19
42 19 51 0 8 10 40 23 72 17 39 29 56 39 53 9 -1 15 -10 15 -20 -1 -9 20 -39
47 -67 27 -28 49 -54 49 -58 -1 -12 -44 -38 -74 -46 -23 -6 -27 -9 -15 -17 11
-7 9 -9 -8 -9 -15 0 -23 6 -24 18 0 9 -5 4 -9 -12 -6 -20 -5 -35 6 -50 8 -13
11 -26 7 -31 -5 -4 0 -5 11 -1 16 5 17 3 12 -20 -6 -24 -5 -26 15 -21 20 5 21
3 16 -28 -4 -23 -1 -37 7 -42 7 -5 21 -23 31 -42 16 -32 16 -36 -1 -80 -9 -25
-24 -50 -32 -55 -12 -7 -5 -17 34 -52 26 -24 51 -44 55 -44 4 0 17 -16 29 -35
19 -30 25 -34 37 -23 10 8 11 14 4 16 -14 5 -14 71 -1 92 7 11 10 7 10 -18 0
-18 4 -31 9 -28 5 3 14 -9 20 -27 11 -28 10 -34 -9 -46 -25 -17 -26 -60 -4
-107 9 -19 14 -43 11 -54 -7 -27 8 -25 28 3 17 22 17 22 10 -11 -4 -20 -3 -32
4 -32 6 0 11 -10 11 -21 0 -18 2 -20 16 -8 14 11 15 9 12 -21 -2 -20 2 -35 10
-37 6 -3 12 2 12 11 0 9 9 21 20 28 11 7 20 20 20 29 0 19 24 42 33 32 12 -11
8 -36 -10 -55 -9 -10 -11 -18 -5 -18 6 0 9 -7 5 -16 -4 -10 0 -20 10 -26 9 -5
14 -15 10 -24 -3 -8 3 -21 13 -29 22 -17 38 -19 29 -5 -8 13 14 42 26 34 5 -3
9 -16 9 -30 0 -26 31 -47 38 -26 8 25 20 10 27 -35 6 -37 9 -44 15 -28 4 11 4
24 -1 30 -17 18 -10 38 12 32 24 -6 49 1 49 14 0 6 5 15 10 22 6 7 17 21 25
32 14 20 14 20 15 -2 0 -12 6 -26 14 -30 11 -6 12 -18 6 -53 -6 -34 -5 -49 7
-65 13 -17 14 -17 9 -2 -8 25 20 77 42 77 16 -1 16 -1 -1 -11 -18 -11 -23 -54
-7 -64 6 -3 10 3 10 14 0 12 5 21 11 21 5 0 7 4 4 10 -3 6 1 7 10 4 12 -5 15
-14 11 -30 -6 -24 9 -35 16 -12 2 6 10 8 16 4 18 -11 55 -87 46 -94 -4 -4 -9
-1 -12 7 -6 17 -32 -41 -32 -71 0 -17 5 -19 33 -13 117 25 191 69 298 178 81
82 123 161 173 326 31 102 54 137 76 115 5 -5 28 -59 49 -118 22 -60 53 -125
69 -145 34 -41 123 -108 202 -150 30 -16 69 -36 85 -45 17 -9 38 -16 47 -16 9
0 19 -4 23 -9 3 -6 26 -13 51 -17 35 -5 59 -2 98 14 28 11 94 36 147 56 103
39 114 48 235 186 37 43 72 98 101 160 106 231 99 223 256 265 73 20 127 27
216 29 106 2 125 6 175 30 66 32 105 77 131 148 33 96 89 201 130 244 44 47
287 219 366 259 63 33 127 97 151 155 11 25 26 59 33 75 44 98 75 186 75 215
0 18 10 48 33 97 5 12 6 30 3 40 -4 10 -9 51 -11 91 -3 40 -12 94 -20 119 -9
25 -13 59 -10 74 3 15 2 30 -3 33 -5 3 -7 39 -4 81 5 75 -11 190 -30 212 -5 7
-12 58 -15 114 -5 88 -4 103 10 111 10 5 17 21 17 38 0 15 5 30 11 32 5 2 11
27 13 56 2 49 10 64 40 75 4 1 3 20 -3 42 -12 45 -7 57 13 30 12 -17 14 -16
20 17 4 24 14 39 31 46 15 7 25 20 25 33 0 13 8 23 20 26 15 4 19 11 14 26 -7
22 13 97 31 112 6 6 14 18 18 28 3 9 12 17 20 17 17 0 44 73 28 78 -19 6 -12
22 10 22 19 0 21 4 16 39 -4 34 -3 38 14 34 20 -6 28 21 9 32 -18 11 -11 28 9
22 17 -4 18 -2 11 19 -6 15 -6 34 1 50 7 21 6 31 -6 44 -21 23 -19 33 6 25 27
-9 40 11 28 42 -14 37 -11 50 12 56 17 4 20 11 16 29 -19 77 -19 98 -3 98 9 0
16 7 16 15 0 8 -5 15 -11 15 -5 0 -8 4 -5 9 7 11 -23 37 -54 46 -41 11 -80 29
-80 37 0 3 38 -7 85 -23 47 -15 92 -26 100 -23 18 7 18 7 4 38 -8 17 -8 33 -1
54 8 22 7 33 -3 43 -7 8 -15 33 -19 57 -5 34 -3 42 9 42 19 0 19 19 0 26 -20
8 -19 24 3 40 16 12 16 14 -6 37 -12 13 -20 31 -17 39 4 9 -4 19 -22 28 -19 9
-23 15 -13 17 9 2 21 13 28 24 11 17 11 25 -3 45 -14 21 -14 24 0 24 25 0 17
20 -12 31 -20 8 -24 13 -13 17 8 2 23 13 33 23 16 17 16 19 -5 30 -33 17 -33
17 -8 44 l23 24 -34 32 c-25 24 -30 33 -19 36 42 12 42 13 21 31 -12 9 -23 28
-26 41 -2 13 -16 38 -30 57 -23 30 -24 34 -8 34 28 0 26 35 -3 49 -26 12 -31
27 -11 34 9 3 9 7 -1 20 -8 9 -11 25 -7 36 4 14 0 23 -15 31 -22 12 -27 36 -7
44 8 3 4 12 -14 28 -18 16 -25 32 -24 53 2 22 -6 39 -32 66 -25 27 -36 49 -42
89 -5 31 -15 56 -25 62 -9 5 -16 15 -16 22 0 8 -7 19 -15 26 -11 9 -12 16 -5
25 7 9 6 16 -5 25 -23 19 -45 77 -45 119 0 23 -7 45 -20 59 -24 25 -26 42 -5
42 19 0 19 14 0 33 -8 8 -12 17 -9 20 6 6 -34 85 -47 93 -14 8 -10 24 6 24 21
0 20 66 -1 78 -8 5 -16 24 -17 43 -2 19 -6 39 -10 46 -4 6 -3 15 3 18 8 5 8
11 0 20 -7 9 -6 16 4 24 18 15 13 28 -31 95 -22 34 -33 62 -33 88 0 27 -6 41
-22 52 -12 9 -17 16 -10 16 17 0 15 25 -3 40 -9 7 -13 21 -10 31 4 11 2 19 -5
19 -13 0 -9 32 5 42 6 5 3 8 -6 8 -9 0 -27 9 -40 21 l-24 20 31 -5 c40 -6 50
3 23 22 -17 11 -20 21 -15 47 5 23 2 38 -9 48 -8 9 -15 20 -15 25 0 5 -14 23
-31 40 -28 27 -29 32 -17 53 7 13 20 29 28 36 13 10 11 13 -13 22 -16 6 -31
20 -34 31 -3 11 -13 20 -22 20 -14 0 -14 2 -1 10 13 9 13 11 0 20 -8 5 -23 10
-32 10 -10 0 -18 5 -18 10 0 6 8 10 18 10 13 0 18 7 17 21 -2 22 -50 52 -104
64 -23 5 -28 11 -29 35 -1 26 3 30 26 30 23 1 24 2 10 11 -10 5 -15 16 -12 24
4 10 -1 15 -16 15 -35 0 -71 49 -37 51 6 0 2 4 -10 9 -14 6 -24 19 -24 32 -1
13 -3 30 -4 38 -1 8 -3 23 -4 33 0 11 -15 32 -32 48 -24 22 -29 32 -20 43 13
16 -16 46 -47 49 -16 1 -18 5 -12 23 7 17 4 27 -11 40 -12 11 -18 26 -15 38 3
11 -1 24 -9 30 -8 7 -15 33 -16 66 -1 40 -9 64 -26 87 -30 41 -29 46 7 38 17
-4 30 -4 30 -1 0 12 -25 61 -35 68 -5 4 2 8 18 8 34 0 34 13 1 39 l-26 21 23
8 c15 6 18 11 11 16 -7 4 -12 12 -12 17 0 6 10 3 22 -5 29 -20 38 -20 38 1 0
10 -12 27 -27 40 -27 22 -27 22 -5 23 12 0 22 5 22 10 0 6 -9 10 -20 10 -22 0
-27 16 -8 22 6 2 -13 17 -43 32 -52 26 -52 27 -16 21 35 -7 53 7 25 18 -10 4
-9 8 2 16 13 9 12 11 -5 11 -26 0 -52 17 -42 26 4 4 31 7 60 6 l52 -2 -50 18
c-42 14 -50 21 -50 42 0 21 5 26 32 28 40 4 42 36 3 52 -19 8 -25 17 -24 38 1
15 7 26 13 25 16 -4 14 14 -3 24 -8 4 -17 24 -21 45 -6 31 -4 36 12 35 26 -3
24 36 -2 43 -11 3 -27 20 -35 37 -12 26 -19 31 -40 27 -20 -5 -22 -3 -10 5 8
6 23 11 32 11 20 0 33 24 33 60 -1 20 -6 24 -23 23 -12 -2 -22 2 -22 7 0 6 4
10 9 10 5 0 8 54 7 121 -2 93 -5 123 -17 130 -11 7 -11 9 4 9 9 0 17 8 18 18
1 9 2 28 3 42 0 14 5 31 9 38 5 8 3 19 -4 29 -11 13 -10 17 4 28 16 12 16 14
-5 28 -17 11 -19 16 -8 16 18 1 22 42 6 54 -8 5 -6 10 3 16 12 8 12 13 -1 33
-16 25 -13 103 4 114 5 3 4 11 -3 20 -8 10 -9 18 0 27 6 8 8 17 5 20 -10 9 -7
77 4 90 5 6 13 50 16 97 3 47 10 99 14 115 5 17 10 54 11 84 1 29 4 58 8 64
12 19 13 61 2 99 -7 28 -6 43 3 58 10 16 10 22 1 28 -7 4 -12 21 -12 37 0 57
-21 186 -35 214 -16 30 -19 89 -5 107 5 6 6 21 4 35 -9 47 -4 184 8 195 4 4 7
20 7 36 0 16 4 37 10 47 5 10 11 52 12 94 2 41 6 73 9 71 9 -5 21 75 13 88
-19 31 15 240 50 308 8 14 32 60 56 104 23 43 54 112 70 155 15 42 45 116 65
166 20 49 39 98 41 109 5 27 74 276 84 306 8 23 19 72 51 238 11 56 9 185 -5
297 -6 52 -44 125 -70 135 -13 5 -27 14 -31 19 -15 25 -205 -5 -205 -32 0 -4
-8 -6 -19 -2 -12 3 -29 -3 -47 -18 -16 -13 -37 -26 -46 -30 -10 -3 -18 -11
-18 -17 0 -6 -4 -8 -10 -5 -5 3 -10 2 -10 -3 0 -6 -7 -13 -16 -16 -12 -5 -15
-2 -10 10 5 12 -4 9 -28 -10 -19 -14 -39 -26 -44 -26 -6 0 -37 -29 -70 -65
-33 -36 -63 -65 -67 -65 -12 0 -90 -74 -88 -82 2 -4 -3 -5 -10 -3 -6 3 -21 -8
-32 -24 -11 -17 -21 -28 -24 -26 -2 3 -46 -39 -97 -91 -52 -53 -94 -93 -94
-90 0 3 -32 -28 -72 -69 -39 -41 -77 -75 -84 -75 -7 0 -16 -9 -19 -20 -3 -11
-11 -20 -16 -20 -5 0 -9 -6 -9 -14 0 -7 -7 -19 -15 -26 -8 -7 -12 -17 -9 -22
4 -6 -1 -8 -13 -4 -14 4 -29 -6 -58 -39 -22 -25 -46 -45 -52 -45 -7 0 -13 -6
-13 -14 0 -8 -9 -18 -20 -21 -11 -3 -25 -15 -31 -26 -6 -12 -17 -18 -25 -15
-7 3 -13 2 -12 -2 2 -4 -14 -23 -35 -43 -20 -20 -37 -40 -37 -45 0 -5 -12 -20
-25 -33 -14 -13 -25 -30 -25 -38 0 -8 -5 -24 -12 -36 -11 -21 -11 -21 -18 -2
-4 12 -1 25 7 33 7 7 13 22 13 33 0 10 6 19 14 19 7 0 17 8 20 18 11 30 30 56
74 101 24 23 40 46 37 49 -3 4 -9 2 -13 -3 -8 -11 -31 -16 -76 -16 -19 0 -30
-6 -33 -19 -4 -15 -9 -17 -23 -10 -20 11 -60 9 -60 -2 0 -13 -28 -9 -33 5 -3
6 -6 -5 -6 -26 -1 -34 -5 -40 -31 -50 -22 -8 -30 -18 -30 -35 0 -20 -2 -22
-15 -12 -8 6 -19 9 -24 6 -5 -4 -13 -2 -16 4 -4 6 -14 10 -23 9 -10 -1 -25 1
-35 6 -9 4 -23 2 -30 -4 -8 -6 -24 -8 -37 -6 -13 2 -29 0 -36 -6 -9 -7 -15 -5
-23 8 -9 16 -12 16 -22 3 -9 -12 -10 -11 -6 7 3 15 1 20 -9 16 -8 -3 -14 1
-14 8 0 9 -3 10 -8 4 -9 -13 -52 -15 -52 -3 0 5 -7 2 -17 -7 -15 -16 -17 -15
-29 7 -13 22 -13 22 -14 2 0 -17 -5 -20 -25 -16 -18 3 -30 -1 -40 -14 -12 -16
-14 -16 -15 -3 0 22 -90 27 -90 4 0 -18 -12 -19 -28 -3 -8 8 -15 8 -25 0 -10
-9 -19 -7 -35 9 -12 11 -22 24 -22 30 0 12 -59 9 -77 -4 -7 -5 -15 -2 -21 8
-8 15 -12 15 -30 4 -18 -11 -31 -11 -79 0 -32 7 -80 14 -108 16 -27 1 -55 3
-62 3 -18 3 -67 48 -216 200 -111 113 -126 125 -162 119 -25 -4 -41 0 -59 14
-13 10 -28 19 -32 19 -11 0 -118 81 -127 97 -5 7 -17 22 -29 33 -11 10 -26 27
-32 38 -20 34 -92 139 -115 168 -13 16 -55 80 -95 142 -40 62 -76 109 -81 105
-4 -5 -5 -3 -2 3 4 6 -4 23 -18 38 -13 15 -24 30 -24 34 1 4 -28 49 -63 100
-34 52 -74 112 -87 135 -61 108 -105 167 -134 176 -23 8 -28 15 -24 31 3 11 1
20 -4 20 -5 0 -9 6 -9 13 0 14 -55 77 -67 77 -5 0 -13 10 -18 23 -6 12 -14 21
-18 19 -5 -2 -17 6 -26 17 -10 11 -21 18 -24 15 -3 -3 -10 4 -17 15 -8 17 -20
21 -58 21 -27 0 -53 -5 -60 -12z m83 -228 c3 -5 1 -10 -4 -10 -6 0 -11 5 -11
10 0 6 2 10 4 10 3 0 8 -4 11 -10z m63 -28 c2 -7 -5 -12 -17 -12 -14 0 -19 5
-14 15 6 17 25 15 31 -3z m22 -22 c0 -5 -4 -10 -10 -10 -19 0 -10 -19 12 -26
34 -11 100 -62 88 -69 -5 -3 -10 -2 -10 3 0 5 -13 12 -30 14 -16 3 -30 1 -30
-4 0 -4 4 -8 8 -8 4 0 23 -11 41 -25 l34 -24 -44 4 c-24 2 -36 1 -26 -2 9 -2
15 -8 12 -13 -2 -4 9 -13 25 -19 17 -6 44 -16 60 -22 17 -6 30 -18 30 -25 0
-14 -22 -17 -132 -17 -27 1 -48 -3 -48 -7 0 -10 36 -20 71 -20 29 0 49 -18 53
-47 2 -12 27 -27 82 -48 l79 -29 -43 -8 c-23 -4 -47 -10 -52 -13 -6 -3 -10 -2
-10 4 0 10 -39 9 -57 -2 -6 -4 -19 -4 -30 0 -16 6 -16 5 -3 -9 9 -8 29 -18 45
-21 73 -14 113 -25 149 -41 22 -9 46 -14 53 -12 7 3 13 0 13 -6 0 -7 -14 -8
-42 -4 -22 4 -61 4 -86 0 -43 -6 -44 -7 -21 -18 13 -6 24 -18 24 -26 0 -8 9
-16 20 -18 50 -7 65 -13 65 -26 0 -8 -12 -17 -27 -22 -22 -6 -24 -8 -10 -12
18 -4 18 -5 -2 -18 -30 -21 -26 -31 17 -49 74 -32 107 -51 105 -62 -1 -6 4
-14 12 -17 8 -3 15 -1 15 4 0 6 5 10 10 10 6 0 10 -8 10 -18 0 -10 5 -23 12
-30 9 -9 8 -12 -4 -12 -9 0 -19 -8 -21 -17 -4 -14 -5 -12 -6 5 -1 16 -7 22
-25 22 -13 0 -31 3 -40 6 -13 5 -16 -1 -16 -25 0 -22 5 -31 16 -31 8 0 22 -7
31 -16 9 -8 22 -13 30 -10 11 4 13 1 8 -14 -4 -14 -2 -20 8 -20 20 0 76 -30
57 -30 -8 -1 9 -14 39 -29 l55 -28 -53 -13 c-44 -10 -55 -10 -62 1 -6 11 -11
11 -21 1 -9 -9 -9 -12 4 -12 16 0 47 -30 32 -31 -5 0 -28 -2 -52 -4 -38 -3
-42 -1 -37 16 5 15 1 19 -16 19 -22 0 -22 0 -3 16 18 14 17 15 -20 10 -22 -3
-45 -2 -50 3 -25 18 -107 42 -126 36 -11 -4 -20 -2 -20 4 0 6 -15 11 -32 12
-31 1 -32 1 -8 9 24 7 23 8 -22 29 -26 12 -54 18 -64 14 -13 -5 -16 -3 -12 9
6 13 1 14 -34 5 -32 -8 -42 -7 -49 4 -6 10 -9 10 -9 2 0 -23 -30 -14 -42 13
-13 28 -1 44 35 44 15 0 12 5 -12 26 -37 31 -40 48 -7 40 14 -3 32 -3 40 0 19
7 22 26 4 23 -7 -1 -20 0 -28 4 -32 12 -60 15 -60 6 0 -6 -9 -1 -21 10 -22 21
-18 41 8 41 10 0 14 6 10 20 -3 13 0 20 9 20 18 0 18 11 -1 46 -14 27 -14 29
5 32 26 4 25 26 -2 44 -22 15 -21 24 4 62 10 15 10 19 1 23 -7 3 -13 16 -13
29 0 18 -5 24 -21 24 -14 0 -19 5 -16 14 14 36 19 86 8 86 -19 0 -12 18 9 25
11 4 18 10 15 14 -2 5 6 6 18 4 12 -2 33 6 46 17 l23 20 -23 21 -24 20 33 -5
c18 -3 32 -1 32 4 0 6 -13 10 -30 10 -16 0 -30 5 -30 10 0 6 11 10 24 10 14 0
28 -4 31 -10 3 -5 21 -10 38 -10 l32 1 -25 14 c-14 8 -32 14 -41 15 -9 0 -27
9 -40 20 -20 16 -21 19 -6 20 16 0 26 20 9 20 -5 0 -17 7 -28 15 -18 15 -17
15 17 13 20 -1 43 3 50 9 27 21 59 28 59 13z m3880 -570 c-45 -19 -90 -26 -76
-12 12 12 69 30 96 31 19 0 15 -4 -20 -19z m-110 -44 c0 -3 -4 -8 -10 -11 -5
-3 -10 -1 -10 4 0 6 5 11 10 11 6 0 10 -2 10 -4z m119 -50 c-2 -2 -20 -6 -39
-10 -25 -4 -31 -3 -20 4 14 9 69 15 59 6z m-21 -156 c7 0 10 -5 6 -11 -4 -7
-24 -9 -55 -6 -29 4 -69 0 -101 -9 -29 -8 -69 -16 -88 -19 -34 -4 -33 -4 5 7
22 6 42 14 45 18 9 13 84 27 130 24 25 -2 51 -3 58 -4z m-3395 -42 c29 -14 38
-35 10 -23 -10 4 -28 10 -40 12 -24 6 -32 23 -10 23 7 0 25 -6 40 -12z m3277
-8 c-8 -5 -22 -10 -30 -10 -13 0 -13 1 0 10 8 5 22 10 30 10 13 0 13 -1 0 -10z
m-70 -40 c0 -5 -13 -10 -29 -10 -17 0 -32 -4 -36 -9 -3 -5 -19 -12 -35 -16
-17 -4 -30 -11 -30 -16 0 -5 -11 -9 -25 -9 -34 0 -32 18 3 26 15 4 32 11 39
16 7 5 17 7 23 3 5 -3 10 1 10 9 0 12 10 16 40 16 22 0 40 -4 40 -10z m-3680
-20 c0 -12 -8 -12 -35 0 -18 8 -17 9 8 9 15 1 27 -3 27 -9z m30 -55 c5 -12 19
-25 32 -28 13 -3 74 -19 137 -36 130 -35 121 -34 121 -21 0 6 -7 10 -15 10 -8
0 -15 5 -15 11 0 6 10 9 23 7 16 -2 21 -9 20 -26 -2 -16 3 -22 16 -22 10 0 32
-7 50 -16 20 -10 42 -13 59 -9 l27 7 -30 13 -30 13 28 1 c17 1 27 6 27 16 0
17 35 21 45 5 10 -17 -4 -47 -25 -53 -33 -9 -23 -36 20 -53 75 -30 33 -54 -52
-29 -29 8 -56 15 -60 16 -4 0 -29 7 -54 15 -26 8 -63 14 -83 14 -32 1 -161 38
-136 39 16 1 -63 51 -82 52 -16 0 -16 1 2 8 11 5 22 5 25 1 10 -15 51 -30 88
-34 22 -2 49 -9 60 -15 24 -13 61 -15 47 -3 -9 8 -102 46 -115 47 -3 0 -9 3
-15 6 -5 4 -32 10 -59 14 -27 3 -57 12 -66 17 -10 6 -26 8 -36 4 -18 -8 -18
-9 4 -17 12 -4 22 -11 22 -13 0 -3 -12 -1 -27 5 -56 20 -83 34 -83 41 0 11 18
10 25 -2 3 -5 16 -10 28 -10 17 1 13 5 -17 20 -22 11 -47 21 -55 22 -9 1 13 4
49 7 78 7 89 5 100 -24z m100 -5 c8 -4 45 -13 83 -20 37 -7 67 -16 67 -21 0
-5 -7 -9 -16 -9 -24 0 -128 31 -138 41 -6 5 -23 9 -38 9 -15 0 -28 5 -28 10 0
10 40 4 70 -10z m3607 -126 c-3 -3 -12 -4 -19 -1 -8 3 -5 6 6 6 11 1 17 -2 13
-5z m-3615 -42 c-19 -6 -64 7 -57 18 3 5 19 4 37 -2 18 -6 27 -13 20 -16z
m3583 18 c3 -5 -1 -10 -9 -10 -9 0 -16 5 -16 10 0 6 4 10 9 10 6 0 13 -4 16
-10z m-75 -10 c0 -5 -9 -10 -19 -10 -28 0 -52 -11 -45 -21 3 -5 -1 -10 -8 -10
-7 -1 1 -4 17 -8 17 -4 42 -3 57 2 15 5 35 7 45 5 16 -3 16 -5 -4 -16 -25 -14
-166 -5 -157 9 6 11 -42 23 -56 14 -11 -7 -40 11 -40 25 0 4 26 8 57 9 31 1
59 4 62 6 9 10 91 5 91 -5z m-3360 -21 c27 -6 50 -15 50 -20 0 -5 6 -9 14 -9
8 0 16 -7 20 -15 3 -8 15 -15 26 -15 11 0 20 -4 20 -10 0 -13 -26 -13 -52 1
-27 14 -36 2 -12 -16 18 -14 18 -14 -6 -14 -70 -1 -310 46 -310 61 0 10 118 8
148 -3 19 -7 29 -6 40 5 13 13 10 16 -27 26 -22 6 -41 13 -41 15 0 9 78 5 130
-6z m3110 -22 c-15 -8 -44 -11 -75 -8 l-50 5 45 7 c25 3 59 7 75 7 l30 2 -25
-13z m-3193 -3 c-3 -3 -12 -4 -19 -1 -8 3 -5 6 6 6 11 1 17 -2 13 -5z m3237
-35 c17 -16 -1 -21 -40 -10 -21 6 -49 8 -63 4 -18 -4 -23 -2 -16 5 21 22 98
23 119 1z m81 -30 c15 -15 -10 -11 -41 7 l-29 16 30 -7 c17 -3 34 -11 40 -16z
m-207 4 c-10 -2 -26 -2 -35 0 -10 3 -2 5 17 5 19 0 27 -2 18 -5z m112 -17 c0
-11 -19 -15 -25 -6 -3 5 1 10 9 10 9 0 16 -2 16 -4z m90 -36 c11 -7 7 -10 -17
-10 -18 0 -33 5 -33 10 0 13 30 13 50 0z m-3157 -7 c-7 -2 -21 -2 -30 0 -10 3
-4 5 12 5 17 0 24 -2 18 -5z m3250 -20 c-7 -2 -19 -2 -25 0 -7 3 -2 5 12 5 14
0 19 -2 13 -5z m-366 -9 c-3 -3 -12 -4 -19 -1 -8 3 -5 6 6 6 11 1 17 -2 13 -5z
m50 -20 c-3 -3 -12 -4 -19 -1 -8 3 -5 6 6 6 11 1 17 -2 13 -5z m-2877 -49 c0
-12 -7 -14 -27 -9 -53 13 -60 23 -15 24 31 0 42 -4 42 -15z m3067 -91 c-3 -3
-12 -4 -19 -1 -8 3 -5 6 6 6 11 1 17 -2 13 -5z m-835 -70 c3 -3 -5 -16 -19
-30 -30 -30 -37 -27 -20 9 11 25 27 34 39 21z m-412 -18 c0 -3 -4 -8 -10 -11
-5 -3 -10 -1 -10 4 0 6 5 11 10 11 6 0 10 -2 10 -4z m-2350 -26 c0 -5 -2 -10
-4 -10 -3 0 -8 5 -11 10 -3 6 -1 10 4 10 6 0 11 -4 11 -10z m3540 -20 c20 -6
21 -8 5 -8 -11 0 -33 4 -50 8 -27 7 -27 8 -5 8 14 0 36 -4 50 -8z m97 -26 c-3
-3 -12 -4 -19 -1 -8 3 -5 6 6 6 11 1 17 -2 13 -5z m68 -32 c-3 -3 -11 0 -18 7
-9 10 -8 11 6 5 10 -3 15 -9 12 -12z m-75 -26 l45 -26 -35 7 c-19 3 -38 11
-41 16 -4 5 -30 12 -58 15 -28 2 -51 9 -51 13 0 18 96 0 140 -25z m-580 -346
c0 -5 -2 -10 -4 -10 -3 0 -8 5 -11 10 -3 6 -1 10 4 10 6 0 11 -4 11 -10z m420
-230 c0 -5 -5 -10 -11 -10 -5 0 -7 5 -4 10 3 6 8 10 11 10 2 0 4 -4 4 -10z
m-2110 -139 c0 -5 -6 -14 -14 -20 -12 -10 -13 -8 -9 8 5 21 23 30 23 12z m0
-129 c0 -9 14 -27 31 -42 29 -23 31 -30 25 -63 -6 -33 -9 -35 -29 -26 -12 6
-33 26 -46 45 -14 19 -33 40 -43 45 -16 8 -17 13 -7 25 9 11 9 18 -4 32 -14
15 -21 43 -18 65 2 15 91 -65 91 -81z m-545 56 c7 -8 4 -9 -8 -4 -10 3 -27 6
-38 6 -10 0 -19 5 -19 11 0 13 50 3 65 -13z m2176 -44 c-11 -15 -21 -32 -21
-39 0 -7 -7 -16 -16 -19 -15 -6 -15 -8 1 -26 10 -11 26 -20 37 -20 22 0 23
-13 3 -30 -8 -7 -15 -19 -15 -26 0 -8 -7 -14 -15 -14 -8 0 -15 -3 -15 -8 0 -4
-12 -20 -26 -35 -29 -31 -27 -44 4 -28 40 21 41 10 3 -29 -43 -44 -51 -48 -51
-24 0 11 -6 15 -20 11 -24 -6 -28 24 -6 45 24 24 40 94 25 104 -7 4 -1 17 14
33 13 14 35 44 48 66 23 39 60 77 68 70 2 -2 -6 -16 -18 -31z m-2183 -8 c27
-15 27 -15 -21 -16 -30 0 -46 4 -42 10 3 6 -2 10 -12 10 -10 0 -25 5 -33 11
-23 16 75 2 108 -15z m-878 4 c0 -5 -4 -10 -10 -10 -5 0 -10 5 -10 10 0 6 5
10 10 10 6 0 10 -4 10 -10z m953 -17 c-7 -2 -19 -2 -25 0 -7 3 -2 5 12 5 14 0
19 -2 13 -5z m-141 -35 c-8 -8 -17 -8 -34 0 -22 10 -21 11 12 11 26 1 31 -2
22 -11z m116 1 c-12 -7 -24 -7 -35 0 -15 9 -12 10 17 10 29 0 32 -1 18 -10z
m127 -19 c-16 -4 -41 -8 -55 -8 l-25 0 25 8 c14 4 39 8 55 8 l30 0 -30 -8z
m-85 -20 c0 -5 -7 -10 -15 -10 -7 0 -18 -6 -22 -14 -9 -15 -149 -31 -157 -17
-7 10 119 26 134 16 5 -3 10 -1 10 4 0 6 -10 11 -22 12 -13 0 -32 4 -43 9 -14
6 1 9 48 9 38 1 67 -3 67 -9z m-257 -17 c-7 -2 -19 -2 -25 0 -7 3 -2 5 12 5
14 0 19 -2 13 -5z m1097 -3 c0 -5 -4 -10 -10 -10 -5 0 -10 5 -10 10 0 6 5 10
10 10 6 0 10 -4 10 -10z m-737 -59 c22 10 30 10 40 0 10 -11 8 -12 -10 -6 -14
4 -23 2 -23 -5 0 -6 -16 -18 -35 -26 -19 -8 -35 -19 -35 -25 0 -11 -20 -8 -74
8 -13 4 -16 2 -11 -7 6 -9 4 -11 -5 -5 -9 5 -10 2 -6 -12 6 -19 4 -20 -36 -12
-24 4 -47 8 -52 9 -25 1 10 15 40 16 19 0 40 8 47 16 16 20 87 62 87 52 0 -4
5 -3 12 4 9 9 14 8 23 -4 9 -13 15 -13 38 -3z m-268 -1 c-4 -6 6 -10 24 -10
36 0 61 -9 61 -22 0 -7 -16 -8 -42 -4 -24 4 -63 10 -88 13 -52 6 -60 10 -40
23 20 13 93 13 85 0z m135 0 c0 -5 -4 -10 -10 -10 -5 0 -10 5 -10 10 0 6 5 10
10 10 6 0 10 -4 10 -10z m870 -36 c16 -26 27 -51 24 -55 -9 -14 -34 -10 -34 5
0 8 -9 18 -21 21 -15 5 -19 12 -15 28 3 12 6 28 6 35 0 21 10 13 40 -34z
m1645 -144 c4 -6 -5 -10 -20 -10 -15 0 -24 4 -20 10 3 6 12 10 20 10 8 0 17
-4 20 -10z m-79 -15 c4 -10 14 -13 32 -8 18 4 23 3 17 -7 -5 -9 -23 -10 -64
-5 -65 8 -79 14 -60 26 22 14 69 10 75 -6z m183 -21 c8 -8 -74 -2 -99 7 -16 5
-4 6 35 2 33 -3 62 -7 64 -9z m151 6 c0 -5 -7 -10 -16 -10 -8 0 -12 5 -9 10 3
6 10 10 16 10 5 0 9 -4 9 -10z m43 3 c-7 -2 -19 -2 -25 0 -7 3 -2 5 12 5 14 0
19 -2 13 -5z m-473 -19 c0 -2 -15 -4 -32 -4 -23 0 -29 3 -19 9 12 8 51 4 51
-5z m-13 -20 c-3 -3 -12 -4 -19 -1 -8 3 -5 6 6 6 11 1 17 -2 13 -5z m222 -40
c2 -2 -7 -4 -22 -4 -14 0 -29 5 -32 10 -6 10 42 4 54 -6z m336 -4 c-3 -5 -10
-10 -16 -10 -5 0 -9 5 -9 10 0 6 7 10 16 10 8 0 12 -4 9 -10z m-3090 -20 c3
-5 -1 -10 -10 -10 -9 0 -13 5 -10 10 3 6 8 10 10 10 2 0 7 -4 10 -10z m385 -6
c0 -11 -8 -14 -27 -12 -39 4 -42 28 -4 28 21 0 31 -5 31 -16z m-400 -49 l34
-25 -35 -1 c-21 -1 -26 -3 -14 -6 31 -8 56 -34 50 -53 -3 -11 1 -20 10 -24 10
-4 15 -19 15 -52 0 -37 5 -50 25 -65 13 -11 22 -26 19 -33 -3 -9 3 -17 16 -21
17 -5 20 -12 16 -31 -5 -20 -2 -26 20 -35 19 -7 24 -13 17 -20 -7 -7 -26 -5
-61 6 -45 15 -50 20 -42 35 8 15 6 19 -13 22 -14 2 -21 9 -19 19 2 12 -4 15
-23 11 -15 -2 -25 0 -25 7 0 6 10 11 23 12 18 0 16 3 -13 16 -31 13 -32 16
-16 25 15 8 16 12 5 19 -12 7 -12 9 0 9 9 0 7 7 -8 19 -12 11 -22 22 -22 25 3
25 -1 36 -14 36 -9 0 -12 6 -9 15 4 10 0 15 -16 15 -11 0 -19 4 -15 10 3 5 13
6 22 3 11 -4 14 -2 11 8 -3 9 -16 13 -36 11 -16 -2 -33 2 -37 7 -3 7 3 11 17
12 23 1 23 1 -2 10 -23 8 -23 8 5 5 17 -3 39 -8 49 -12 14 -5 17 -4 12 4 -4 7
-1 12 8 12 10 0 13 6 10 15 -8 20 -3 19 36 -10z m1095 -154 c-4 -13 0 -20 15
-24 13 -3 20 -13 20 -31 0 -15 8 -30 21 -37 17 -8 20 -17 15 -40 -3 -16 -1
-31 5 -35 8 -4 7 -9 -2 -15 -11 -7 -10 -9 4 -9 9 0 17 -7 17 -15 0 -8 -7 -15
-15 -15 -8 0 -15 -7 -15 -15 0 -18 12 -19 28 -3 20 20 40 -7 24 -33 -10 -16
-10 -22 3 -35 12 -12 13 -20 4 -36 -8 -16 -8 -22 2 -29 8 -4 16 -3 20 3 4 6
12 9 18 7 17 -6 -21 -49 -43 -49 -19 0 -21 -21 -4 -38 9 -9 9 -15 0 -24 -9 -9
-12 -7 -12 10 0 12 -4 22 -10 22 -5 0 -10 -9 -10 -20 0 -14 -7 -20 -22 -20
-14 0 -18 3 -12 8 6 4 14 17 18 29 6 20 5 21 -23 13 l-29 -8 -5 61 c-4 65 -25
148 -38 157 -4 3 -7 21 -6 40 1 19 -2 45 -6 58 -6 17 -5 22 7 22 21 0 20 7 -4
37 -11 14 -20 30 -20 34 0 5 9 9 20 9 13 0 20 7 20 20 0 11 5 20 11 20 6 0 8
-8 4 -19z m-1568 -27 c-3 -3 -12 -4 -19 -1 -8 3 -5 6 6 6 11 1 17 -2 13 -5z
m-27 -48 c0 -2 -7 -6 -15 -10 -8 -3 -15 -1 -15 4 0 6 7 10 15 10 8 0 15 -2 15
-4z m-260 -56 c0 -5 -7 -7 -15 -4 -8 4 -15 8 -15 10 0 2 7 4 15 4 8 0 15 -4
15 -10z m255 -10 c-3 -5 -13 -10 -22 -10 -11 0 -9 -5 8 -19 19 -15 21 -22 11
-33 -9 -11 -9 -17 1 -27 10 -11 8 -12 -10 -6 -17 4 -23 2 -23 -8 0 -8 7 -17
15 -21 8 -3 15 -10 15 -15 0 -13 -30 -2 -50 18 -11 11 -12 15 -2 19 21 7 13
28 -18 52 -36 28 -37 32 -7 46 28 15 90 17 82 4z m-95 -70 c0 -5 -4 -10 -10
-10 -5 0 -10 5 -10 10 0 6 5 10 10 10 6 0 10 -4 10 -10z m-60 -30 c0 -5 -4
-10 -10 -10 -5 0 -10 5 -10 10 0 6 5 10 10 10 6 0 10 -4 10 -10z m-50 -30 c0
-5 5 -10 11 -10 5 0 7 4 4 10 -7 12 55 2 70 -11 5 -5 17 -9 26 -9 9 0 22 -7
29 -15 7 -8 20 -15 30 -15 10 0 20 -6 23 -12 7 -20 -101 -22 -129 -3 -13 8
-30 12 -39 9 -20 -8 -55 23 -55 48 0 10 7 18 15 18 8 0 15 -4 15 -10z m277
-62 c-3 -8 -6 -5 -6 6 -1 11 2 17 5 13 3 -3 4 -12 1 -19z m768 -38 c3 -5 -1
-10 -10 -10 -9 0 -13 5 -10 10 3 6 8 10 10 10 2 0 7 -4 10 -10z m445 -39 c24
-7 23 -8 -15 -23 -28 -12 -33 -17 -19 -17 50 -2 127 -51 79 -51 -20 0 -19 -17
3 -29 22 -13 7 -14 -18 -1 -23 12 -40 -7 -19 -21 10 -6 7 -9 -11 -8 -31 1
-103 -25 -93 -34 3 -4 21 -7 40 -7 18 0 33 -5 33 -11 0 -22 -74 -1 -93 26 -11
15 -29 25 -43 25 -25 0 -32 14 -11 24 6 3 -6 4 -28 1 -22 -2 -34 -2 -27 1 6 3
12 9 12 14 0 9 -39 25 -52 22 -5 -1 -8 2 -8 7 0 6 21 13 48 17 26 4 58 15 71
25 12 10 38 21 57 25 19 3 34 10 34 15 0 10 23 10 60 0z m563 -178 c-7 -2 -19
-2 -25 0 -7 3 -2 5 12 5 14 0 19 -2 13 -5z m57 -3 c0 -5 -4 -10 -10 -10 -5 0
-10 5 -10 10 0 6 5 10 10 10 6 0 10 -4 10 -10z m-5 -33 c11 -7 39 -14 63 -15
50 -1 65 -9 58 -28 -7 -19 28 -36 59 -28 25 6 35 -8 15 -21 -19 -12 -11 -38 9
-32 31 8 34 -22 6 -55 -20 -24 -23 -33 -14 -44 9 -12 8 -18 -7 -29 -10 -8 -14
-15 -9 -15 6 0 3 -5 -5 -11 -12 -8 -10 -9 8 -4 28 8 29 -9 2 -28 -20 -14 -19
-15 20 -21 22 -3 41 -12 41 -19 1 -6 3 -19 4 -27 0 -8 5 -24 10 -34 6 -13 5
-21 -3 -24 -7 -2 -12 -15 -12 -28 0 -28 -16 -30 -67 -12 -27 10 -38 10 -53 0
-25 -16 -40 -15 -92 3 -31 10 -54 12 -82 5 -31 -7 -42 -6 -50 6 -6 8 -22 13
-36 12 -16 -2 -24 2 -22 10 1 6 -2 12 -8 12 -12 0 -10 71 3 87 5 7 7 19 3 28
-3 9 3 19 15 25 14 8 18 17 14 31 -9 27 4 66 16 48 7 -12 11 -11 26 4 17 16
16 18 -5 33 -22 15 -31 54 -11 54 5 0 7 5 4 10 -4 6 -2 17 4 24 7 8 10 20 9
27 -2 8 3 13 10 12 20 -5 14 7 -10 17 -22 8 -22 9 5 9 15 1 30 8 33 16 7 18
23 19 49 2z m-145 -267 c0 -5 -5 -10 -11 -10 -5 0 -7 5 -4 10 3 6 8 10 11 10
2 0 4 -4 4 -10z m-383 -96 c-3 -3 -12 -4 -19 -1 -8 3 -5 6 6 6 11 1 17 -2 13
-5z m-27 -24 c0 -5 -12 -10 -26 -10 -14 0 -23 4 -19 10 3 6 15 10 26 10 10 0
19 -4 19 -10z m-723 -6 c-3 -3 -12 -4 -19 -1 -8 3 -5 6 6 6 11 1 17 -2 13 -5z
m50 -20 c-3 -3 -12 -4 -19 -1 -8 3 -5 6 6 6 11 1 17 -2 13 -5z m728 -4 c3 -5
-3 -10 -14 -10 -12 0 -21 5 -21 10 0 6 6 10 14 10 8 0 18 -4 21 -10z m-85 -10
c11 -7 7 -10 -17 -10 -18 0 -33 5 -33 10 0 13 30 13 50 0z m-640 -32 c0 -6
-13 -7 -32 -3 -39 9 -42 11 -34 24 8 12 66 -6 66 -21z m143 25 c-7 -2 -19 -2
-25 0 -7 3 -2 5 12 5 14 0 19 -2 13 -5z m111 -13 c20 -1 20 -1 2 -11 -12 -7
-41 -8 -85 -3 -61 7 -63 8 -31 15 19 4 48 5 64 3 16 -2 38 -4 50 -4z m-337
-66 c-3 -3 -12 -4 -19 -1 -8 3 -5 6 6 6 11 1 17 -2 13 -5z m469 -22 c-16 -2
-32 0 -37 5 -5 5 7 7 29 4 34 -5 35 -6 8 -9z m1314 -202 c0 -5 -2 -10 -4 -10
-2 0 -12 -3 -20 -6 -12 -5 -15 -2 -10 10 7 17 34 22 34 6z m1237 -16 c-3 -3
-12 -4 -19 -1 -8 3 -5 6 6 6 11 1 17 -2 13 -5z m-1244 -38 c11 -16 13 -26 5
-34 -16 -16 0 -32 33 -32 19 0 29 -5 29 -14 0 -23 -17 -28 -34 -11 -9 9 -17
11 -21 5 -8 -13 -65 -13 -85 0 -13 9 -13 11 0 20 13 9 13 11 0 20 -8 5 -20 8
-27 5 -7 -2 -15 0 -19 6 -3 6 3 13 14 16 11 2 22 13 25 24 8 29 60 26 80 -5z
m452 4 c4 -6 14 -10 23 -9 22 3 52 -10 52 -22 0 -5 -8 -9 -17 -9 -15 0 -14 -2
3 -14 10 -8 15 -18 11 -23 -12 -11 -118 -6 -131 7 -5 5 -18 10 -28 10 -10 0
-18 5 -18 10 0 6 12 10 26 10 21 0 25 4 21 20 -3 10 0 21 7 24 20 8 45 6 51
-4z m-145 -50 c0 -5 -7 -7 -15 -4 -8 4 -15 8 -15 10 0 2 7 4 15 4 8 0 15 -4
15 -10z m-1670 -10 c0 -5 -4 -10 -9 -10 -6 0 -13 5 -16 10 -3 6 1 10 9 10 9 0
16 -4 16 -10z m2167 -6 c-3 -3 -12 -4 -19 -1 -8 3 -5 6 6 6 11 1 17 -2 13 -5z
m-2377 -14 c0 -5 -8 -10 -17 -10 -15 0 -16 2 -3 10 19 12 20 12 20 0z m50 0
c0 -5 -2 -10 -4 -10 -3 0 -8 5 -11 10 -3 6 -1 10 4 10 6 0 11 -4 11 -10z m295
0 c-3 -5 -17 -10 -31 -10 -14 0 -22 4 -19 10 3 6 17 10 31 10 14 0 22 -4 19
-10z m1385 0 c0 -5 -4 -10 -9 -10 -6 0 -13 5 -16 10 -3 6 1 10 9 10 9 0 16 -4
16 -10z m667 -149 c109 -39 123 -48 83 -48 -20 0 -26 3 -18 9 9 5 5 8 -11 8
-34 0 -281 81 -276 91 6 9 107 -18 222 -60z m-2286 15 c-7 -8 -25 -17 -40 -21
-16 -3 -34 -17 -41 -30 -7 -14 -20 -25 -29 -25 -14 0 -14 -2 -1 -10 12 -8 11
-10 -5 -8 -52 4 -85 -3 -85 -17 0 -19 -16 -19 -24 0 -9 26 -128 4 -138 -26 -4
-12 -28 -4 -28 9 0 4 24 18 53 32 28 14 54 28 57 31 3 4 32 14 65 24 33 9 96
27 140 39 44 12 82 21 84 19 2 -1 -2 -9 -8 -17z m802 -1 c1 -5 -6 -11 -15 -13
-11 -2 -18 3 -18 13 0 17 30 18 33 0z m-523 -10 c-14 -8 -35 -14 -48 -15 -13
0 -32 -9 -44 -20 -21 -19 -21 -20 -2 -20 14 0 16 -2 6 -9 -9 -5 0 -10 28 -15
25 -4 43 -13 47 -24 4 -9 15 -23 25 -30 22 -16 24 -42 3 -42 -8 0 -15 8 -15
17 0 13 -3 14 -12 5 -15 -15 -68 -16 -68 -1 0 6 -7 8 -16 5 -12 -4 -14 -1 -9
14 9 30 -31 60 -69 53 -21 -4 -27 -3 -22 5 4 7 2 12 -6 12 -32 0 32 41 71 45
23 3 52 11 64 20 12 8 37 15 57 15 l35 -1 -25 -14z m-663 -1 c-3 -3 -12 -4
-19 -1 -8 3 -5 6 6 6 11 1 17 -2 13 -5z m-57 -14 c0 -5 -19 -9 -42 -9 l-43 2
35 7 c19 4 38 8 43 9 4 0 7 -3 7 -9z m130 -20 c0 -5 -8 -10 -17 -10 -15 0 -16
2 -3 10 19 12 20 12 20 0z m-110 -9 c-26 -14 -70 -22 -70 -12 0 9 26 16 70 19
13 1 13 0 0 -7z m2612 -12 c32 -12 56 -24 54 -26 -5 -5 -126 37 -126 43 0 7
13 4 72 -17z m-2715 -5 c-3 -3 -12 -4 -19 -1 -8 3 -5 6 6 6 11 1 17 -2 13 -5z
m3038 -19 l30 -14 -30 6 c-16 3 -37 9 -45 14 -27 15 11 10 45 -6z m-430 -43
c-3 -3 -11 0 -18 7 -9 10 -8 11 6 5 10 -3 15 -9 12 -12z m560 -3 c5 -5 -5 -4
-23 2 -17 6 -32 13 -32 16 0 7 43 -8 55 -18z m-290 1 c3 -6 -1 -7 -9 -4 -18 7
-21 14 -7 14 6 0 13 -4 16 -10z m-215 -15 c14 -8 21 -14 15 -14 -5 0 -21 6
-35 14 -14 8 -20 14 -15 14 6 0 21 -6 35 -14z m-2595 -25 c-33 -16 -63 -30
-68 -30 -4 0 -25 -11 -46 -24 -55 -35 -60 -20 -6 16 25 17 45 34 45 40 0 5 10
6 21 3 16 -5 19 -4 14 6 -6 9 -3 11 8 6 9 -3 27 -2 39 3 53 21 48 8 -7 -20z
m245 20 c-8 -5 -22 -9 -30 -9 -10 0 -8 3 5 9 27 12 43 12 25 0z m-150 -15
c-30 -17 -40 -18 -40 -6 0 8 22 16 55 19 6 1 -1 -5 -15 -13z m3167 -21 c-3 -3
-12 -4 -19 -1 -8 3 -5 6 6 6 11 1 17 -2 13 -5z m-2431 -49 c-16 -12 -21 -12
-32 0 -8 7 -14 18 -14 24 0 16 34 19 50 4 13 -13 13 -16 -4 -28z m1874 35 c8
-5 11 -10 5 -10 -5 0 -17 5 -25 10 -8 5 -10 10 -5 10 6 0 17 -5 25 -10z
m-2883 -56 c-3 -3 -12 -4 -19 -1 -8 3 -5 6 6 6 11 1 17 -2 13 -5z m1090 -29
c33 -30 26 -40 -22 -31 -36 7 -40 12 -29 40 8 22 21 20 51 -9z m-1137 5 c0 -5
-5 -10 -11 -10 -5 0 -7 5 -4 10 3 6 8 10 11 10 2 0 4 -4 4 -10z m-135 -90 c-3
-5 -10 -10 -16 -10 -5 0 -9 5 -9 10 0 6 7 10 16 10 8 0 12 -4 9 -10z m3702
-16 c-3 -3 -12 -4 -19 -1 -8 3 -5 6 6 6 11 1 17 -2 13 -5z m-3777 -44 c-19
-16 -45 -38 -58 -50 -12 -11 -27 -20 -33 -20 -5 0 -19 -9 -31 -20 -24 -22 -38
-26 -38 -10 0 6 7 10 15 10 8 0 15 7 15 15 0 9 6 18 14 21 15 6 10 44 -6 44
-5 0 -7 4 -4 9 3 4 16 6 28 4 13 -2 41 3 63 11 62 23 73 18 35 -14z m-140 6
c0 -3 -14 -12 -32 -20 -22 -12 -35 -13 -42 -6 -8 8 -6 14 4 20 15 10 70 14 70
6z m103 -153 c-7 -2 -19 -2 -25 0 -7 3 -2 5 12 5 14 0 19 -2 13 -5z m-123 -23
c-20 -13 -33 -13 -25 0 3 6 14 10 23 10 15 0 15 -2 2 -10z m710 -85 c-7 -9
-15 -13 -17 -11 -7 7 7 26 19 26 6 0 6 -6 -2 -15z m-615 -92 c-22 -16 -45 -17
-45 -3 0 13 41 30 54 22 5 -3 1 -11 -9 -19z m930 7 c-10 -11 -22 -20 -26 -20
-5 0 -25 -11 -45 -25 -38 -26 -54 -31 -54 -17 0 4 17 16 37 27 21 11 45 28 55
38 10 9 25 17 35 17 14 0 14 -2 -2 -20z m-818 -12 c7 -1 11 -4 10 -7 -2 -3 -9
-19 -17 -35 -12 -23 -12 -30 -2 -33 14 -5 16 -33 2 -33 -5 0 -10 -7 -10 -15 0
-21 17 -19 37 5 17 20 43 27 43 12 0 -4 -5 -13 -12 -20 -9 -9 -7 -12 11 -12
20 0 21 -2 11 -15 -11 -13 -8 -15 14 -15 16 0 26 -6 26 -15 0 -9 6 -12 15 -9
9 4 15 1 15 -7 -1 -18 -24 -49 -38 -49 -6 0 -14 -9 -17 -20 -4 -11 -11 -17
-17 -14 -6 4 -14 0 -19 -7 -4 -7 -11 -11 -14 -7 -10 9 18 49 31 44 6 -2 16 6
23 20 6 13 7 24 2 24 -5 0 -11 -6 -14 -13 -2 -7 -25 -23 -51 -35 -45 -23 -67
-42 -47 -42 6 0 11 5 11 12 0 6 3 8 7 5 8 -8 -26 -47 -41 -47 -6 0 -4 4 4 10
8 5 11 12 7 16 -3 4 -13 1 -22 -6 -28 -23 -15 5 15 34 43 40 29 45 -17 7 -38
-32 -68 -41 -60 -18 2 6 10 12 18 11 8 0 22 8 32 19 19 18 18 19 -2 12 -21 -6
-21 -6 -4 29 9 20 20 36 25 36 4 0 8 8 7 18 0 10 -3 12 -6 5 -2 -7 -14 -13
-24 -13 -11 0 -17 -5 -14 -10 10 -17 -5 -52 -20 -46 -9 3 -12 0 -9 -8 6 -15
-22 -30 -37 -20 -14 8 -11 19 11 44 11 13 20 27 20 33 0 5 -9 7 -20 4 -13 -3
-20 0 -20 9 0 21 -12 17 -50 -19 -19 -18 -43 -36 -52 -40 -10 -3 -18 -14 -18
-22 0 -9 -4 -14 -9 -11 -5 4 -2 20 7 39 9 17 15 44 14 60 -2 17 3 30 13 33 8
4 15 11 15 18 0 6 17 22 37 35 33 21 35 25 18 31 -17 6 -17 7 -1 13 30 12 49
8 42 -8 -3 -9 0 -15 10 -15 11 0 15 6 11 20 -4 17 0 20 30 20 23 0 32 4 27 11
-5 9 1 10 22 5 16 -4 34 -7 41 -8z m183 2 c0 -5 -10 -10 -22 -10 -19 0 -20 2
-8 10 19 13 30 13 30 0z m-400 -46 c0 -8 -22 -27 -49 -42 -17 -10 -26 -11 -34
-3 -8 8 -5 11 9 11 12 0 29 9 39 20 17 19 35 26 35 14z m-99 -167 c-10 -9 -11
-8 -5 6 3 10 9 15 12 12 3 -3 0 -11 -7 -18z m154 13 c-3 -5 -11 -10 -16 -10
-6 0 -7 5 -4 10 3 6 11 10 16 10 6 0 7 -4 4 -10z m-238 -65 c-4 -8 -14 -15
-23 -15 -16 0 -16 2 2 19 21 21 29 19 21 -4z m2030 -47 c-2 -13 -4 -3 -4 22 0
25 2 35 4 23 2 -13 2 -33 0 -45z m-1252 23 c-3 -6 -11 -11 -17 -11 -6 0 -6 6
2 15 14 17 26 13 15 -4z m-455 -35 c0 -2 -7 -7 -16 -10 -8 -3 -12 -2 -9 4 6
10 25 14 25 6z m737 -24 c-10 -10 -17 -29 -17 -42 0 -23 -1 -23 -14 -5 -12 17
-12 22 3 42 9 12 22 23 30 23 11 0 11 -4 -2 -18z m470 -4 c-3 -8 -6 -5 -6 6
-1 11 2 17 5 13 3 -3 4 -12 1 -19z m184 -21 c-8 -8 -11 -7 -11 4 0 20 13 34
18 19 3 -7 -1 -17 -7 -23z m-783 1 c-2 -6 -10 -14 -16 -16 -7 -2 -10 2 -6 12
7 18 28 22 22 4z m-468 -8 c0 -5 -5 -10 -11 -10 -5 0 -7 5 -4 10 3 6 8 10 11
10 2 0 4 -4 4 -10z m1070 -20 c0 -17 -17 -37 -25 -29 -2 2 -1 16 2 31 6 30 23
28 23 -2z m207 -2 c-3 -8 -6 -5 -6 6 -1 11 2 17 5 13 3 -3 4 -12 1 -19z
m-1113 -13 c-4 -8 -8 -15 -10 -15 -2 0 -4 7 -4 15 0 8 4 15 10 15 5 0 7 -7 4
-15z m361 5 c-3 -5 -12 -10 -18 -10 -7 0 -6 4 3 10 19 12 23 12 15 0z m-445
-21 c-7 -11 -14 -19 -16 -16 -7 7 7 37 17 37 6 0 5 -9 -1 -21z m304 -1 c-34
-39 -44 -50 -44 -43 0 11 44 65 53 65 6 0 2 -10 -9 -22z m841 -28 c-4 -23 -9
-39 -11 -37 -3 2 -2 23 2 46 4 23 9 40 11 37 3 -3 2 -23 -2 -46z m-645 27 c0
-18 -36 -51 -44 -39 -6 10 21 52 35 52 5 0 9 -6 9 -13z m-565 -17 c-10 -11
-23 -20 -29 -20 -6 1 0 10 13 20 30 26 39 26 16 0z m215 8 c-1 -7 -12 -26 -26
-43 -26 -30 -27 -23 -2 27 14 29 28 37 28 16z m400 6 c0 -3 -7 -12 -15 -21
-20 -19 -32 -10 -14 11 14 15 29 21 29 10z m819 -44 c-2 -47 -11 -70 -23 -52
-5 8 13 102 20 102 2 0 3 -23 3 -50z m-739 -60 c-6 -12 -14 -19 -17 -17 -2 3
1 15 7 27 6 12 14 19 17 17 2 -3 -1 -15 -7 -27z m40 0 c-6 -12 -14 -19 -17
-17 -2 3 1 15 7 27 6 12 14 19 17 17 2 -3 -1 -15 -7 -27z m266 -14 c-7 -21
-16 -35 -19 -30 -6 10 21 80 28 73 2 -3 -2 -22 -9 -43z m-136 -16 c0 -5 -5
-10 -11 -10 -5 0 -7 5 -4 10 3 6 8 10 11 10 2 0 4 -4 4 -10z m617 -12 c-3 -8
-6 -5 -6 6 -1 11 2 17 5 13 3 -3 4 -12 1 -19z m-1122 -49 c-14 -39 -15 -40
-10 -10 3 18 5 43 5 54 0 15 3 18 11 10 8 -8 6 -23 -6 -54z m1172 -1 c-2 -13
-4 -3 -4 22 0 25 2 35 4 23 2 -13 2 -33 0 -45z m-320 20 c-3 -8 -6 -5 -6 6 -1
11 2 17 5 13 3 -3 4 -12 1 -19z m-803 -26 c-4 -18 -10 -29 -14 -27 -5 3 -10 0
-13 -7 -2 -7 -2 -2 0 12 3 14 9 27 14 28 5 2 9 11 9 20 0 8 2 13 5 10 3 -3 2
-19 -1 -36z m693 6 c-2 -13 -9 -34 -15 -48 -10 -22 -11 -20 -6 15 4 22 9 43
11 48 8 14 14 7 10 -15z m191 -18 c-15 -24 -22 -19 -13 9 3 12 11 19 16 16 5
-4 3 -14 -3 -25z m-1021 -2 c-3 -8 -6 -5 -6 6 -1 11 2 17 5 13 3 -3 4 -12 1
-19z m930 -10 c-3 -8 -6 -5 -6 6 -1 11 2 17 5 13 3 -3 4 -12 1 -19z m160 0
c-3 -8 -6 -5 -6 6 -1 11 2 17 5 13 3 -3 4 -12 1 -19z m890 7 c9 -24 -1 -27
-15 -5 -8 13 -8 20 -2 20 6 0 13 -7 17 -15z m-1734 -30 c-3 -9 -8 -14 -10 -11
-3 3 -2 9 2 15 9 16 15 13 8 -4z m3097 5 c0 -5 -2 -10 -4 -10 -3 0 -8 5 -11
10 -3 6 -1 10 4 10 6 0 11 -4 11 -10z m-2616 -27 c-3 -16 -12 -47 -20 -71 -8
-23 -14 -53 -14 -65 -1 -12 -7 -33 -15 -47 -13 -24 -13 -23 -8 20 5 40 18 99
39 168 9 32 26 27 18 -5z m-584 7 c0 -5 -5 -10 -11 -10 -5 0 -7 5 -4 10 3 6 8
10 11 10 2 0 4 -4 4 -10z m-36 -26 c3 -8 2 -12 -4 -9 -6 3 -10 10 -10 16 0 14
7 11 14 -7z m529 -16 c-3 -18 -12 -49 -19 -68 -13 -35 -13 -34 -9 22 4 60 10
78 25 78 5 0 7 -15 3 -32z m-246 -10 c-3 -8 -6 -5 -6 6 -1 11 2 17 5 13 3 -3
4 -12 1 -19z m153 -2 c0 -8 -4 -18 -10 -21 -5 -3 -10 3 -10 14 0 12 5 21 10
21 6 0 10 -6 10 -14z m404 -60 c-3 -21 -8 -35 -11 -32 -2 2 -1 20 3 40 3 21 8
35 11 32 2 -2 1 -20 -3 -40z m133 -8 c-3 -7 -5 -2 -5 12 0 14 2 19 5 13 2 -7
2 -19 0 -25z m-567 -10 c-18 -69 -19 -72 -14 -29 4 42 11 61 19 61 2 0 0 -15
-5 -32z m-754 -35 c-10 -10 -19 5 -10 18 6 11 8 11 12 0 2 -7 1 -15 -2 -18z
m781 5 c-3 -8 -6 -5 -6 6 -1 11 2 17 5 13 3 -3 4 -12 1 -19z m580 -15 c-3 -10
-5 -4 -5 12 0 17 2 24 5 18 2 -7 2 -21 0 -30z m200 5 c-3 -7 -5 -2 -5 12 0 14
2 19 5 13 2 -7 2 -19 0 -25z m-600 -10 c-3 -7 -5 -2 -5 12 0 14 2 19 5 13 2
-7 2 -19 0 -25z m-897 -73 c0 -8 -4 -15 -10 -15 -5 0 -7 7 -4 15 4 8 8 15 10
15 2 0 4 -7 4 -15z m3125 -33 c-3 -3 -11 0 -18 7 -9 10 -8 11 6 5 10 -3 15 -9
12 -12z m-2868 -24 c-3 -8 -6 -5 -6 6 -1 11 2 17 5 13 3 -3 4 -12 1 -19z
m2818 11 c11 -17 0 -20 -21 -4 -17 13 -17 14 -2 15 9 0 20 -5 23 -11z m-2709
-47 c-7 -53 -33 -142 -47 -158 -6 -7 -9 -21 -7 -31 4 -20 47 71 57 121 7 30
35 56 47 43 4 -4 2 -17 -4 -30 -6 -12 -12 -41 -14 -64 l-3 -42 22 21 23 21 0
-20 c0 -12 -5 -23 -12 -25 -6 -2 -8 -10 -4 -16 10 -17 46 3 47 26 1 11 4 8 8
-7 8 -30 -8 -161 -21 -161 -4 0 -6 11 -2 25 10 42 -13 28 -30 -17 -8 -24 -16
-49 -18 -57 -2 -8 -14 -16 -26 -18 -19 -2 -22 2 -22 28 0 24 -3 29 -17 25 -10
-3 -25 -1 -33 4 -10 6 -11 10 -2 10 14 0 17 95 3 104 -4 3 -17 -14 -27 -37
-10 -23 -24 -45 -30 -50 -7 -4 -16 -22 -20 -40 -6 -28 -8 -29 -14 -12 -4 11
-3 26 2 32 6 7 7 20 4 29 -11 28 -36 -15 -29 -48 5 -28 -9 -39 -22 -18 -5 8
-11 7 -21 -1 -19 -16 -18 -6 6 38 21 39 27 83 11 83 -5 0 -12 -12 -16 -27 -3
-15 -14 -34 -24 -42 -10 -9 -20 -23 -24 -31 -4 -11 -6 -10 -6 5 -1 11 8 44 19
73 26 67 25 85 -1 47 l-21 -30 7 29 c3 15 13 35 20 43 15 14 19 32 16 65 -1 9
3 19 9 23 5 3 10 1 10 -5 0 -6 5 -8 10 -5 6 4 8 10 6 14 -3 4 15 30 39 57 43
47 63 44 29 -4 -9 -13 -13 -26 -9 -30 3 -3 10 0 14 7 5 7 14 10 20 6 8 -4 9
-11 3 -18 -22 -27 -66 -187 -52 -187 5 0 11 18 15 40 4 22 11 42 16 46 5 3 9
14 9 25 0 11 7 22 15 25 8 4 15 12 15 19 0 7 10 33 21 57 12 23 26 53 32 65
15 33 29 17 23 -25z m-226 0 c0 -9 -9 -23 -20 -30 -11 -7 -20 -19 -20 -28 0
-8 -6 -22 -12 -29 -7 -8 -19 -22 -27 -30 -22 -27 -24 -8 -2 23 25 36 28 64 5
55 -14 -5 -15 -3 -5 15 6 12 17 19 25 16 7 -3 19 2 26 11 17 20 30 19 30 -3z
m24 -7 c-4 -8 -8 -15 -10 -15 -2 0 -4 7 -4 15 0 8 4 15 10 15 5 0 7 -7 4 -15z
m-344 -9 c0 -3 -4 -8 -10 -11 -5 -3 -10 -1 -10 4 0 6 5 11 10 11 6 0 10 -2 10
-4z m3185 -6 c3 -5 1 -10 -4 -10 -6 0 -11 5 -11 10 0 6 2 10 4 10 3 0 8 -4 11
-10z m-3389 -19 c-9 -10 -14 -25 -11 -33 4 -9 -3 -19 -19 -26 -21 -9 -25 -8
-30 11 -8 30 16 62 49 65 27 2 27 1 11 -17z m386 -20 c-10 -17 -22 -28 -25
-24 -4 3 -7 -1 -7 -10 0 -17 -22 -44 -102 -128 -58 -61 -72 -64 -24 -4 21 25
35 49 32 53 -3 5 5 14 17 21 12 7 33 28 47 46 14 19 30 35 36 35 6 0 17 11 24
25 7 14 15 23 17 21 2 -2 -4 -18 -15 -35z m141 1 c-3 -12 -9 -22 -14 -22 -5 0
-9 -9 -9 -19 0 -25 -49 -84 -50 -60 0 9 7 22 15 29 8 7 15 16 15 21 0 11 42
81 46 76 2 -1 1 -13 -3 -25z m2944 -7 c23 -20 25 -24 10 -25 -10 0 -20 7 -24
16 -3 9 -15 20 -27 24 -16 7 -17 9 -4 9 9 1 30 -10 45 -24z m-449 -10 c-3 -3
-9 2 -12 12 -6 14 -5 15 5 6 7 -7 10 -15 7 -18z m-2081 -71 c-6 -64 -27 -114
-47 -114 -6 0 -10 10 -9 23 0 14 3 17 6 7 6 -14 30 55 40 118 9 57 16 34 10
-34z m20 44 c-3 -8 -6 -5 -6 6 -1 11 2 17 5 13 3 -3 4 -12 1 -19z m28 -75 c-7
-93 -6 -97 10 -75 11 15 14 32 10 51 -3 17 -2 32 4 36 7 3 8 0 5 -9 -4 -11 0
-16 10 -16 9 0 16 7 16 15 0 8 5 15 10 15 6 0 10 -6 10 -12 0 -19 -34 -112
-42 -116 -4 -2 -4 -10 -1 -18 4 -11 9 -12 19 -3 8 6 14 16 14 22 0 5 14 39 30
74 17 34 30 68 30 73 0 6 5 10 10 10 15 0 13 -13 -11 -72 -25 -61 -39 -108
-34 -108 10 0 66 126 72 163 3 23 8 36 11 29 3 -10 8 -9 23 4 24 22 24 13 -1
-38 -42 -87 -18 -83 33 5 15 26 32 47 38 47 6 0 9 -3 7 -7 -9 -18 -26 -60 -37
-88 l-12 -30 21 25 c11 14 28 37 37 53 17 27 40 38 30 15 -3 -7 -8 -21 -12
-30 -4 -11 -3 -18 4 -18 6 0 11 9 11 20 0 23 10 25 32 8 23 -19 5 -78 -25 -79
-12 0 -17 -3 -10 -5 11 -5 -30 -54 -45 -54 -4 0 -20 -19 -37 -41 -25 -34 -31
-37 -37 -22 -6 16 -7 15 -7 -3 -1 -12 -18 -37 -38 -56 -33 -29 -94 -100 -128
-147 -5 -7 -26 -30 -45 -51 -19 -20 -34 -44 -32 -53 2 -9 -2 -25 -8 -36 -9
-18 -8 -21 7 -21 17 -1 17 -1 1 -11 -10 -5 -15 -16 -12 -24 4 -9 0 -15 -10
-15 -18 0 -21 15 -6 25 8 5 8 11 1 19 -7 9 -6 19 5 34 8 12 14 27 13 34 -3 20
12 50 39 77 46 46 131 169 137 197 3 16 2 23 -1 16 -5 -10 -9 -9 -20 5 -11 15
-13 15 -14 3 0 -9 6 -22 13 -29 10 -10 7 -11 -15 -6 -18 5 -28 3 -28 -4 0 -6
7 -8 15 -5 28 11 16 -26 -12 -39 -28 -12 -60 -37 -48 -37 3 0 -10 -16 -30 -37
-19 -20 -35 -40 -35 -44 0 -14 -51 -84 -57 -79 -4 3 -7 34 -8 70 -1 36 0 59 2
53 6 -18 23 -16 23 2 0 8 -4 15 -10 15 -15 0 -12 33 5 56 13 17 14 17 15 2 0
-21 20 -24 20 -4 0 8 3 23 7 33 6 16 5 16 -10 4 -20 -16 -23 -6 -4 13 7 7 18
11 25 8 6 -2 12 1 12 7 0 6 6 11 13 11 8 0 19 11 25 25 11 23 10 24 -8 13 -11
-7 -20 -16 -20 -20 0 -5 -5 -8 -11 -8 -6 0 -1 16 11 36 17 26 20 38 11 47 -15
15 -51 -24 -51 -58 0 -14 -4 -25 -9 -25 -14 0 -63 -100 -57 -117 4 -8 1 -11
-5 -7 -6 3 -9 16 -6 28 11 48 50 142 63 152 8 6 14 18 14 26 0 9 9 27 20 40
10 14 24 47 30 74 26 116 33 112 25 -13z m2021 55 c21 -23 31 -39 21 -35 -21
8 -22 -6 -2 -23 8 -7 15 -16 15 -21 0 -5 -7 -6 -15 -3 -8 4 -15 12 -15 19 0 7
-13 29 -30 50 -53 67 -34 77 26 13z m64 -6 c0 -13 -3 -12 -15 4 -19 25 -19 40
0 24 8 -7 15 -20 15 -28z m450 28 c0 -5 -4 -10 -10 -10 -5 0 -10 5 -10 10 0 6
5 10 10 10 6 0 10 -4 10 -10z m-3650 -10 c0 -5 -4 -10 -10 -10 -5 0 -10 5 -10
10 0 6 5 10 10 10 6 0 10 -4 10 -10z m520 3 c0 -13 -79 -99 -80 -87 0 6 13 27
30 45 16 19 30 37 30 42 0 4 5 7 10 7 6 0 10 -3 10 -7z m2450 -14 c0 -5 -4 -9
-10 -9 -5 0 -10 7 -10 16 0 8 5 12 10 9 6 -3 10 -10 10 -16z m279 5 c6 4 15
-4 22 -16 7 -12 18 -29 26 -36 7 -7 13 -18 13 -23 0 -5 -9 0 -20 11 -11 11
-24 20 -30 20 -5 0 -10 7 -10 16 0 10 -6 14 -14 11 -8 -3 -16 2 -19 14 -4 16
-3 18 8 9 8 -7 19 -9 24 -6z m428 -16 c-3 -7 -5 -2 -5 12 0 14 2 19 5 13 2 -7
2 -19 0 -25z m-3684 -52 c-26 -33 -53 -46 -53 -28 0 8 69 62 78 62 2 0 -9 -15
-25 -34z m274 -21 c-15 -16 -19 -13 -11 9 3 9 10 13 15 10 5 -3 3 -11 -4 -19z
m243 15 c0 -5 -4 -10 -10 -10 -5 0 -10 5 -10 10 0 6 5 10 10 10 6 0 10 -4 10
-10z m991 -31 c-6 -16 -10 -18 -10 -7 -1 22 12 55 16 42 2 -6 -1 -22 -6 -35z
m766 -6 c-3 -10 -5 -2 -5 17 0 19 2 27 5 18 2 -10 2 -26 0 -35z m1009 10 c-7
-7 -26 7 -26 19 0 6 6 6 15 -2 9 -7 13 -15 11 -17z m-586 -7 c0 -14 5 -28 10
-31 12 -7 13 -25 3 -25 -9 0 -33 49 -33 67 0 7 5 13 10 13 6 0 10 -11 10 -24z
m-2197 -1 c3 -7 -3 -24 -14 -37 -18 -20 -20 -21 -14 -3 4 11 7 28 7 38 -1 21
14 23 21 2z m103 -5 c0 -12 -4 -16 -9 -11 -5 5 -6 14 -3 20 10 15 12 14 12 -9z
m931 -20 c-3 -23 -1 -38 4 -34 5 3 9 11 9 19 0 8 4 16 8 19 5 3 6 -8 4 -25 -2
-16 -8 -29 -12 -29 -4 0 -7 -18 -6 -39 1 -45 16 -45 16 -1 0 16 5 32 10 35 6
3 10 16 10 28 0 16 3 18 12 9 10 -10 10 -17 0 -32 -22 -35 -12 -36 18 -1 35
41 51 35 21 -7 -12 -17 -21 -35 -21 -40 0 -6 -18 -28 -41 -49 -23 -21 -51 -47
-62 -58 -34 -31 -49 -29 -42 8 4 18 13 42 20 53 10 16 11 24 2 33 -8 8 -7 18
4 39 9 15 22 46 29 70 17 53 24 54 17 2z m-950 -17 c-8 -41 -28 -76 -38 -66
-6 6 -4 24 5 51 8 23 13 42 10 42 -3 0 -2 5 2 11 9 16 25 -14 21 -38z m2302 7
c0 -10 -3 -8 -9 5 -12 27 -12 43 0 25 5 -8 9 -22 9 -30z m-2479 16 c0 -2 -7
-9 -15 -16 -13 -11 -14 -10 -9 4 5 14 24 23 24 12z m1048 -131 c-22 -66 -44
-121 -49 -123 -5 -2 -9 -11 -9 -20 -1 -15 -2 -15 -11 1 -8 14 -8 22 0 30 6 6
11 21 11 34 0 27 20 73 32 73 4 0 8 7 8 15 0 8 3 15 8 15 4 0 15 23 25 51 10
28 20 49 22 47 2 -2 -14 -57 -37 -123z m919 93 c-3 -8 -6 -5 -6 6 -1 11 2 17
5 13 3 -3 4 -12 1 -19z m133 1 c0 -6 -4 -7 -10 -4 -5 3 -10 11 -10 16 0 6 5 7
10 4 6 -3 10 -11 10 -16z m-1683 -11 c-3 -8 -6 -5 -6 6 -1 11 2 17 5 13 3 -3
4 -12 1 -19z m-487 -14 c0 -8 -3 -14 -8 -14 -4 0 -20 -11 -35 -25 -15 -14 -27
-21 -27 -15 0 6 -5 8 -11 4 -8 -5 -9 -2 -1 12 6 10 19 19 29 19 10 0 22 10 28
22 10 23 25 22 25 -3z m1103 -24 c-3 -11 -9 -20 -14 -20 -5 0 -9 -7 -9 -15 0
-8 -9 -19 -19 -24 -17 -9 -18 -8 -13 12 5 20 4 20 -10 7 -8 -9 -19 -27 -23
-40 -4 -13 -14 -31 -22 -39 -13 -12 -16 -12 -25 0 -7 11 -8 9 -4 -6 5 -16 1
-20 -19 -21 l-25 -2 22 32 c28 41 84 96 97 96 6 0 8 7 5 15 -7 18 12 20 20 3
3 -9 8 -8 16 5 15 23 29 22 23 -3z m417 -2 c0 -16 -3 -19 -11 -11 -6 6 -8 16
-5 22 11 17 16 13 16 -11z m1015 4 c-3 -3 -11 0 -18 7 -9 10 -8 11 6 5 10 -3
15 -9 12 -12z m-2488 -35 c-6 -15 -18 -29 -26 -32 -11 -4 -11 -1 1 17 8 13 18
29 22 36 14 23 16 7 3 -21z m1752 -10 c0 -27 -2 -29 -9 -12 -12 28 -12 57 0
50 6 -3 10 -21 9 -38z m-1172 -34 c-16 -29 -57 -81 -57 -70 0 3 -3 12 -6 20
-4 10 1 15 13 14 13 -2 23 12 38 50 13 34 21 46 23 33 2 -10 -3 -31 -11 -47z
m-155 25 c-9 -9 -12 -7 -12 12 0 19 3 21 12 12 9 -9 9 -15 0 -24z m908 -25
c-11 -17 -11 -17 -6 0 3 10 7 28 7 40 2 22 2 22 6 0 2 -12 -1 -30 -7 -40z
m307 15 c-3 -7 -5 -2 -5 12 0 14 2 19 5 13 2 -7 2 -19 0 -25z m250 0 c-3 -7
-5 -2 -5 12 0 14 2 19 5 13 2 -7 2 -19 0 -25z m-1591 -32 c-8 -20 -17 -36 -20
-36 -3 0 -2 10 3 23 5 12 12 31 15 41 4 10 9 16 12 14 3 -3 -2 -22 -10 -42z
m-41 24 c-3 -5 -11 -10 -16 -10 -6 0 -7 5 -4 10 3 6 11 10 16 10 6 0 7 -4 4
-10z m191 -36 c-4 -14 -9 -24 -12 -21 -3 2 -2 17 2 31 3 15 9 25 11 22 3 -3 2
-17 -1 -32z m1084 6 c0 -16 -4 -30 -8 -30 -5 0 -7 14 -4 30 2 17 6 30 8 30 2
0 4 -13 4 -30z m-1169 -17 c-9 -16 -10 -14 -11 12 0 21 3 26 11 18 8 -8 8 -16
0 -30z m120 -16 c-13 -13 -15 1 -4 30 7 17 8 17 11 -1 2 -10 -1 -23 -7 -29z
m889 -44 c0 -47 -3 -84 -6 -81 -7 7 -12 157 -5 163 10 10 11 2 11 -82z m473
42 c4 -27 3 -35 -3 -25 -5 8 -10 28 -10 44 0 39 6 30 13 -19z m37 -10 c0 -23
-3 -27 -10 -15 -5 8 -10 29 -10 45 0 23 3 27 10 15 5 -8 10 -28 10 -45z m926
14 c19 -22 19 -22 -3 -8 -13 8 -23 17 -23 21 0 12 6 9 26 -13z m-1395 -22
c-10 -9 -11 -8 -5 6 3 10 9 15 12 12 3 -3 0 -11 -7 -18z m-1072 -21 c-8 -6
-23 -28 -33 -49 -11 -20 -21 -35 -24 -32 -6 6 14 48 43 88 11 17 21 23 24 16
2 -7 -2 -17 -10 -23z m551 -5 c-6 -12 -15 -21 -21 -21 -5 0 -12 -8 -16 -17 -3
-10 -21 -32 -40 -49 -32 -30 -43 -54 -24 -54 4 0 22 14 39 30 36 34 44 36 63
14 11 -14 10 -16 -6 -14 -34 4 -43 1 -50 -17 -5 -15 -4 -16 6 -5 21 20 34 14
15 -7 -9 -10 -31 -21 -47 -25 -17 -3 -28 -10 -24 -16 4 -6 12 -7 18 -3 12 7
-3 -14 -38 -53 -34 -38 -46 -54 -40 -54 11 0 -37 -79 -51 -84 -8 -3 -11 0 -7
10 3 7 9 14 14 14 5 0 9 8 9 18 0 10 7 28 17 41 13 19 14 28 4 42 -6 11 -8 19
-3 19 4 0 13 15 20 33 9 23 15 28 21 19 5 -9 8 -3 7 17 -1 21 -5 30 -13 26
-24 -8 -13 11 22 42 19 17 35 37 35 45 0 7 12 24 25 37 14 13 25 18 25 12 0
-6 5 -11 10 -11 6 0 10 6 10 14 0 8 6 16 13 19 18 6 20 1 7 -22z m627 7 c-3
-8 -6 -5 -6 6 -1 11 2 17 5 13 3 -3 4 -12 1 -19z m-1006 -29 c-5 -19 -10 -28
-10 -21 -2 21 -17 13 -30 -14 -6 -15 -14 -24 -16 -22 -9 9 27 68 41 68 8 0 14
8 14 17 0 9 3 14 6 11 3 -3 1 -21 -5 -39z m411 -8 c-16 -22 -18 -31 -9 -40 9
-9 8 -11 -5 -6 -24 9 -23 28 4 58 30 34 37 25 10 -12z m59 -4 c-8 -8 -11 -7
-11 4 0 20 13 34 18 19 3 -7 -1 -17 -7 -23z m566 -9 c-3 -7 -5 -2 -5 12 0 14
2 19 5 13 2 -7 2 -19 0 -25z m-837 8 c0 -2 -8 -10 -17 -17 -16 -13 -17 -12 -4
4 13 16 21 21 21 13z m979 -28 c0 -27 -2 -29 -8 -13 -5 11 -6 26 -4 33 8 21
13 13 12 -20z m46 -45 c4 -13 3 -23 -3 -23 -12 0 -22 35 -21 75 l1 30 8 -30
c5 -16 12 -40 15 -52z m-2115 47 c-13 -11 -25 -20 -27 -20 -2 0 1 9 7 20 6 11
18 20 27 20 12 0 11 -4 -7 -20z m815 10 c-3 -5 -12 -10 -18 -10 -7 0 -6 4 3
10 19 12 23 12 15 0z m535 -20 c0 -5 -4 -10 -10 -10 -5 0 -10 5 -10 10 0 6 5
10 10 10 6 0 10 -4 10 -10z m-569 -61 c-37 -50 -38 -48 -10 16 14 33 24 44 31
37 7 -7 1 -24 -21 -53z m930 -6 c-10 -17 -10 -17 -11 2 0 11 4 31 8 45 l7 25
3 -27 c2 -15 -1 -35 -7 -45z m226 20 c-3 -10 -5 -2 -5 17 0 19 2 27 5 18 2
-10 2 -26 0 -35z m380 25 c-3 -8 -6 -5 -6 6 -1 11 2 17 5 13 3 -3 4 -12 1 -19z
m-887 -28 c0 -5 -5 -10 -11 -10 -5 0 -7 5 -4 10 3 6 8 10 11 10 2 0 4 -4 4
-10z m-154 -47 c-14 -47 -58 -123 -71 -123 -5 0 -4 5 3 12 7 7 12 21 12 32 0
18 -1 19 -16 5 -8 -9 -16 -22 -17 -30 -2 -8 -13 -29 -25 -46 -12 -17 -22 -36
-22 -42 0 -6 -4 -11 -10 -11 -5 0 -10 -6 -10 -12 0 -16 -88 -113 -95 -106 -5
5 85 149 115 185 6 7 10 18 10 25 0 13 34 48 47 48 3 0 12 8 19 18 13 16 14
16 7 -2 -10 -30 13 -11 31 26 9 17 16 37 16 45 0 7 4 13 9 13 5 0 4 -17 -3
-37z m-296 13 c0 -8 -4 -17 -10 -21 -5 -3 -7 -12 -3 -20 3 -8 1 -15 -4 -15 -5
0 -17 -13 -26 -30 -10 -16 -22 -30 -28 -30 -13 0 -11 34 3 48 7 7 8 12 4 12
-5 0 -15 -8 -22 -17 -12 -17 -13 -16 -14 5 0 26 11 38 55 64 37 21 45 22 45 4z
m130 -6 c0 -5 -4 -10 -10 -10 -5 0 -10 -7 -10 -16 0 -8 -4 -12 -10 -9 -6 4 -5
13 3 25 13 21 27 26 27 10z m1107 -22 c-3 -7 -5 -2 -5 12 0 14 2 19 5 13 2 -7
2 -19 0 -25z m-1226 -15 c-12 -20 -14 -14 -5 12 4 9 9 14 11 11 3 -2 0 -13 -6
-23z m1119 -3 c0 -5 -4 -10 -10 -10 -5 0 -10 5 -10 10 0 6 5 10 10 10 6 0 10
-4 10 -10z m-1450 -30 c-8 -29 -32 -60 -45 -60 -3 0 2 12 13 28 10 15 22 35
25 45 11 29 16 19 7 -13z m644 18 c-13 -23 -69 -103 -75 -108 -3 -3 -13 -18
-22 -35 -17 -33 -70 -95 -80 -95 -7 0 1 19 25 60 4 8 12 24 17 36 5 11 25 34
45 52 20 17 36 34 36 37 0 5 53 64 58 65 2 0 0 -6 -4 -12z m503 -30 c-3 -7 -5
-2 -5 12 0 14 2 19 5 13 2 -7 2 -19 0 -25z m200 -20 c-2 -13 -4 -5 -4 17 -1
22 1 32 4 23 2 -10 2 -28 0 -40z m-560 -20 c-3 -8 -6 -5 -6 6 -1 11 2 17 5 13
3 -3 4 -12 1 -19z m763 -35 c0 -68 -5 -67 -13 5 -4 30 -2 52 3 52 6 0 10 -25
10 -57z m-1335 27 c7 -21 -5 -49 -29 -70 -19 -15 -21 -30 -5 -30 14 0 36 26
51 60 6 14 12 20 15 13 2 -6 -5 -30 -17 -53 -12 -23 -18 -49 -15 -59 3 -12 -3
-22 -20 -31 -14 -7 -25 -18 -25 -24 0 -6 -5 -4 -10 4 -8 13 -10 13 -10 -1 0
-29 13 -30 41 -3 25 24 27 24 22 6 -3 -11 -20 -38 -37 -59 -29 -34 -44 -58
-78 -126 -13 -27 -1 -33 22 -12 21 19 24 17 14 -9 -3 -9 -14 -16 -25 -16 -10
0 -23 -9 -29 -20 -6 -11 -19 -20 -29 -20 -10 0 -24 -7 -31 -15 -7 -9 -15 -13
-18 -10 -3 3 7 19 23 35 32 34 21 40 -18 10 -18 -15 -25 -29 -25 -55 0 -19 4
-38 9 -41 5 -3 9 -10 9 -15 0 -6 -4 -8 -9 -4 -5 3 -12 1 -16 -5 -3 -5 1 -10 9
-10 26 0 18 -17 -15 -30 -26 -11 -32 -11 -40 1 -5 8 -9 9 -9 3 0 -15 -49 -36
-63 -27 -6 4 -24 6 -39 5 -27 -2 -28 -1 -16 20 7 13 18 26 23 30 6 4 0 8 -12
8 -12 0 -29 -7 -37 -16 -19 -18 -22 -4 -3 15 10 11 9 13 -5 8 -21 -7 -21 -7
-8 27 5 14 7 33 4 41 -8 21 -70 20 -78 -1 -4 -9 -9 -14 -12 -11 -4 3 8 26 25
51 28 43 29 65 1 31 -16 -20 -27 -19 -57 5 -30 23 -18 27 14 5 19 -13 22 -13
27 1 10 25 7 32 -14 39 -15 5 -19 12 -15 26 6 17 3 19 -22 14 -27 -6 -27 -6
-8 10 11 9 29 23 40 32 14 10 16 17 7 20 -13 5 -7 23 9 23 6 0 8 -4 5 -9 -3
-5 0 -11 7 -14 23 -9 63 4 75 24 15 23 4 26 -13 3 -6 -9 -17 -15 -23 -13 -17
6 27 65 58 79 28 13 36 11 32 -7 -2 -8 7 -13 20 -13 18 0 20 -2 8 -10 -9 -6
-18 -6 -24 0 -15 15 -36 12 -36 -5 0 -8 7 -15 15 -15 9 0 20 -10 25 -22 8 -21
9 -21 10 -3 0 17 2 17 10 5 8 -13 11 -12 25 5 16 19 16 19 10 -9 -6 -28 -5
-28 24 -23 23 5 31 3 31 -8 0 -8 5 -15 10 -15 13 0 13 17 0 25 -5 3 2 21 15
41 13 20 27 45 31 56 6 20 6 20 26 -2 l20 -21 -23 -25 c-12 -13 -28 -24 -36
-24 -7 0 -13 -5 -13 -11 0 -6 8 -8 19 -4 11 3 21 0 24 -9 3 -8 16 -16 29 -18
l23 -5 -25 -10 c-23 -10 -23 -10 14 -17 24 -5 43 -3 49 3 8 8 6 11 -5 11 -11
0 -14 7 -10 25 2 14 8 25 12 25 10 0 49 127 56 178 4 35 14 58 14 33 0 -7 5
-9 10 -6 6 4 8 11 4 16 -7 13 2 39 15 39 5 0 12 -9 16 -20z m-85 -10 c0 -5 -4
-10 -10 -10 -5 0 -10 5 -10 10 0 6 5 10 10 10 6 0 10 -4 10 -10z m1455 -67
c-6 -36 -25 -36 -25 0 0 18 2 19 10 7 7 -11 10 -3 11 30 1 26 4 35 6 21 3 -13
2 -39 -2 -58z m-1205 57 c0 -6 -10 -21 -21 -33 -12 -12 -28 -35 -36 -52 l-14
-30 6 28 c10 49 65 122 65 87z m1297 -52 c-3 -8 -6 -5 -6 6 -1 11 2 17 5 13 3
-3 4 -12 1 -19z m-1527 2 c0 -5 -3 -10 -7 -10 -12 0 -33 -51 -33 -77 0 -23
-37 -69 -47 -59 -3 3 2 12 11 21 9 9 16 26 16 37 0 32 32 98 47 98 7 0 13 -4
13 -10z m1487 -12 c-3 -8 -6 -5 -6 6 -1 11 2 17 5 13 3 -3 4 -12 1 -19z
m-1717 8 c0 -3 -4 -8 -10 -11 -5 -3 -10 -1 -10 4 0 6 5 11 10 11 6 0 10 -2 10
-4z m154 -30 c-7 -34 -20 -47 -41 -39 -15 6 -18 39 -3 48 6 4 8 9 6 13 -2 4 7
8 21 8 22 2 24 -1 17 -30z m786 -50 c0 -3 -4 -8 -10 -11 -5 -3 -10 -1 -10 4 0
6 5 11 10 11 6 0 10 -2 10 -4z m-1585 -16 c3 -5 -3 -10 -15 -10 -12 0 -18 5
-15 10 3 6 10 10 15 10 5 0 12 -4 15 -10z m1051 -5 c-9 -9 -20 -24 -25 -33 -5
-9 -12 -14 -15 -11 -8 8 32 59 45 59 6 0 3 -7 -5 -15z m1301 -17 c-3 -8 -6 -5
-6 6 -1 11 2 17 5 13 3 -3 4 -12 1 -19z m-1177 8 c0 -3 -4 -8 -10 -11 -5 -3
-10 -1 -10 4 0 6 5 11 10 11 6 0 10 -2 10 -4z m634 -91 c-20 -96 -30 -118 -62
-133 -17 -8 -37 -33 -55 -67 -26 -52 -29 -83 -6 -70 5 4 9 -4 9 -15 0 -16 5
-20 15 -16 8 3 15 1 15 -5 0 -6 -8 -13 -19 -16 -15 -4 -20 -18 -25 -81 -4 -41
-12 -85 -19 -96 -6 -12 -10 -25 -9 -29 1 -5 -2 -6 -7 -3 -8 6 -64 -67 -97
-125 -18 -33 -34 -46 -34 -28 -1 10 -4 8 -11 -5 -9 -14 -13 -15 -19 -5 -5 7
-3 21 6 33 19 27 18 47 -1 22 -21 -28 -20 2 1 32 19 27 66 171 59 182 -2 4 0
21 5 38 11 39 -3 51 -19 16 -13 -28 -35 -23 -26 7 4 13 2 19 -9 19 -9 0 -16 8
-16 19 0 11 -6 21 -12 24 -10 3 -10 9 -1 28 6 13 14 31 17 39 4 8 4 -4 2 -27
-2 -24 -1 -43 3 -43 14 0 51 96 52 136 1 23 4 30 6 17 7 -36 20 -27 27 19 4
26 3 44 -4 48 -8 5 -5 22 9 56 l20 49 -2 -37 c-1 -20 -4 -35 -7 -33 -3 2 -6
-27 -6 -65 0 -38 1 -68 2 -67 12 19 30 66 23 62 -5 -4 -9 1 -9 9 0 8 4 17 8
20 4 3 14 28 22 56 17 61 30 74 30 28 l1 -33 15 25 15 25 -5 -30 c-3 -16 -8
-43 -12 -59 -7 -28 -7 -29 12 -10 11 11 20 30 21 43 2 25 28 59 38 49 3 -3 1
-17 -4 -31 -10 -26 -5 -41 10 -31 5 3 9 14 9 26 0 28 43 119 52 110 4 -4 0
-38 -8 -77z m-524 45 c0 -5 -5 -10 -11 -10 -5 0 -7 5 -4 10 3 6 8 10 11 10 2
0 4 -4 4 -10z m117 -30 c-6 -16 -15 -30 -20 -30 -5 0 -6 6 -3 13 3 6 9 20 12
30 4 9 10 17 14 17 5 0 3 -13 -3 -30z m553 -22 c0 -29 3 -71 6 -93 5 -27 3
-37 -3 -30 -13 13 -24 175 -12 175 5 0 9 -24 9 -52z m-714 -15 c-14 -20 -26
-34 -26 -29 0 13 42 78 47 72 3 -2 -7 -22 -21 -43z m-896 23 c0 -3 -4 -8 -10
-11 -5 -3 -10 -1 -10 4 0 6 5 11 10 11 6 0 10 -2 10 -4z m1577 -83 c-2 -16 -4
-3 -4 27 0 30 2 43 4 28 2 -16 2 -40 0 -55z m65 52 c3 -13 1 -22 -3 -19 -9 5
-13 44 -5 44 2 0 6 -11 8 -25z m-99 -59 c-6 -38 -19 -47 -26 -18 -3 9 -5 4 -6
-13 -1 -16 -6 -37 -12 -45 -8 -11 -9 -7 -4 17 4 18 2 40 -3 49 -7 13 -11 7
-16 -25 -3 -22 -11 -41 -16 -41 -9 0 -7 25 6 89 4 20 7 22 15 10 6 -10 9 -11
9 -1 0 8 5 10 12 6 8 -5 9 -2 4 11 -5 15 -4 16 9 5 13 -11 15 -9 16 11 0 24 0
24 9 2 5 -12 6 -38 3 -57z m129 10 c-6 -49 -13 -46 -10 3 1 22 5 38 8 36 3 -2
4 -20 2 -39z m-812 29 c0 -6 -69 -75 -75 -75 -11 0 -3 11 33 44 38 36 42 40
42 31z m-240 -40 c-7 -9 -15 -13 -18 -10 -3 2 1 11 8 20 7 9 15 13 18 10 3 -2
-1 -11 -8 -20z m-1046 -1 c4 -9 4 -19 2 -22 -10 -9 -36 8 -36 23 0 20 26 19
34 -1z m26 12 c0 -3 -4 -8 -10 -11 -5 -3 -10 -1 -10 4 0 6 5 11 10 11 6 0 10
-2 10 -4z m435 -14 c-3 -3 -11 0 -18 7 -9 10 -8 11 6 5 10 -3 15 -9 12 -12z
m511 -20 c-17 -16 -18 -16 -5 5 7 12 15 20 18 17 3 -2 -3 -12 -13 -22z m1181
-19 c-3 -10 -5 -4 -5 12 0 17 2 24 5 18 2 -7 2 -21 0 -30z m-807 -42 c0 -5 -3
-11 -7 -13 -5 -1 -16 -19 -25 -38 -16 -33 -17 -33 -17 -10 -1 14 7 36 17 48
18 23 32 28 32 13z m-223 -20 c10 -15 6 -27 -22 -69 -37 -55 -55 -71 -55 -50
0 18 48 88 60 88 6 0 10 7 10 15 0 18 -17 20 -23 3 -2 -7 -8 -10 -12 -6 -8 7
12 38 24 38 3 0 11 -8 18 -19z m774 -8 c-12 -20 -14 -14 -5 12 4 9 9 14 11 11
3 -2 0 -13 -6 -23z m-966 -2 c-3 -6 -11 -11 -17 -11 -6 0 -6 6 2 15 14 17 26
13 15 -4z m925 0 c0 -14 -31 -43 -39 -36 -3 4 2 11 12 16 9 6 15 14 12 20 -4
5 -1 9 4 9 6 0 11 -4 11 -9z m-1824 -16 c-8 -8 -21 -15 -28 -15 -8 1 -6 6 6
15 26 20 42 19 22 0z m2511 -7 c-3 -8 -6 -5 -6 6 -1 11 2 17 5 13 3 -3 4 -12
1 -19z m-2462 -18 c-3 -5 -12 -10 -18 -10 -7 0 -6 4 3 10 19 12 23 12 15 0z
m1737 -32 c-7 -7 -12 -8 -12 -2 0 14 12 26 19 19 2 -3 -1 -11 -7 -17z m-1817
-16 c-3 -3 -11 0 -18 7 -9 10 -8 11 6 5 10 -3 15 -9 12 -12z m1254 -29 c-13
-21 -29 -44 -36 -51 -7 -7 -13 -18 -13 -24 0 -6 -3 -9 -6 -5 -3 3 11 33 31 67
21 33 40 58 43 56 2 -3 -6 -22 -19 -43z m173 10 c-3 -16 -7 -22 -10 -15 -4 13
4 42 11 42 2 0 2 -12 -1 -27z m704 -19 c-4 -20 -10 -34 -12 -31 -3 3 -2 21 2
41 3 21 9 35 11 32 3 -3 2 -21 -1 -42z m-2057 20 c-19 -23 -68 -46 -81 -37 -8
4 7 16 37 30 60 27 61 27 44 7z m787 -3 c-3 -5 -24 -18 -46 -30 l-41 -21 11
21 c11 20 42 37 68 38 7 1 11 -3 8 -8z m-209 -58 c-5 -4 -28 -10 -49 -12 -12
-1 -9 -41 2 -42 6 -1 16 -2 23 -3 6 -1 19 3 27 8 23 16 59 36 66 36 3 0 4 -7
0 -15 -6 -17 19 -21 29 -5 3 6 12 10 20 10 8 0 4 -11 -13 -30 -16 -18 -29 -25
-33 -19 -4 7 -8 5 -12 -5 -4 -9 -16 -16 -27 -16 -11 0 -20 -4 -20 -9 0 -11
-31 -24 -38 -16 -7 7 35 43 59 50 11 4 19 11 19 16 0 5 -17 -2 -37 -16 -21
-14 -48 -29 -60 -34 -11 -6 -24 -15 -28 -21 -3 -5 -10 -8 -15 -5 -4 3 -6 -4
-3 -15 3 -11 9 -20 13 -20 4 0 8 -11 8 -25 0 -24 -30 -55 -53 -55 -5 0 -4 4 4
9 9 6 11 18 7 35 -7 29 -25 36 -22 9 1 -14 -7 -18 -29 -18 -17 -1 -37 -4 -45
-9 -8 -4 -6 0 4 8 26 21 31 76 7 76 -9 0 -22 9 -29 20 -7 11 -8 20 -4 20 5 0
14 12 21 26 l11 26 -26 -21 c-15 -12 -34 -21 -43 -20 -12 0 -11 4 7 16 12 8
22 21 22 27 0 20 64 48 96 42 16 -4 23 -3 17 0 -7 3 -13 10 -13 15 0 14 28 11
33 -3 4 -10 8 -9 16 2 7 9 14 11 19 5 4 -5 19 -10 33 -10 19 -1 25 4 22 15 -3
9 0 8 7 -3 7 -10 10 -21 7 -24z m-222 7 c-3 -5 -12 -10 -18 -10 -7 0 -6 4 3
10 19 12 23 12 15 0z m495 0 c0 -5 -5 -10 -11 -10 -5 0 -7 5 -4 10 3 6 8 10
11 10 2 0 4 -4 4 -10z m60 -7 c-8 -3 -23 -15 -35 -26 l-20 -20 23 6 c12 3 22
1 22 -4 0 -4 -10 -14 -22 -20 -13 -7 -26 -17 -30 -23 -4 -6 -11 -7 -15 -2 -4
4 0 14 11 21 10 8 15 18 12 24 -9 15 25 49 49 49 14 0 15 -1 5 -5z m-95 -33
c3 -5 1 -10 -4 -10 -6 0 -11 5 -11 10 0 6 2 10 4 10 3 0 8 -4 11 -10z m-833
-22 c-7 -7 -12 -8 -12 -2 0 14 12 26 19 19 2 -3 -1 -11 -7 -17z m-25 -14 c-3
-3 -12 -4 -19 -1 -8 3 -5 6 6 6 11 1 17 -2 13 -5z m849 -50 c-11 -8 -28 -14
-37 -14 -10 0 -21 -4 -24 -10 -7 -12 -35 -13 -35 -2 0 10 48 34 72 37 10 1 21
5 25 8 3 4 9 4 12 1 3 -3 -3 -12 -13 -20z m-834 0 c-12 -8 -27 -12 -32 -9 -6
3 -10 2 -10 -3 0 -6 -7 -13 -16 -16 -10 -4 -13 -2 -8 6 5 8 2 9 -12 4 -10 -5
-28 -11 -39 -14 -11 -3 -23 -10 -26 -15 -4 -6 -13 -6 -24 0 -14 8 -7 13 36 28
30 10 65 19 77 21 13 1 26 5 30 8 3 3 15 6 26 6 20 0 20 0 -2 -16z m638 -3 c0
-5 -7 -12 -16 -15 -14 -5 -15 -4 -4 9 14 17 20 19 20 6z m-275 -20 c-3 -6 -11
-11 -17 -11 -6 0 -6 6 2 15 14 17 26 13 15 -4z m214 -5 c9 -10 8 -15 -4 -20
-9 -3 -15 0 -15 8 0 8 -6 17 -12 19 -8 4 -7 6 3 6 9 1 22 -5 28 -13z m221 -25
c0 -5 -10 -11 -22 -14 -22 -6 -22 -6 -4 8 23 17 26 18 26 6z m-195 -71 c-3 -5
-12 -10 -18 -10 -7 0 -6 4 3 10 19 12 23 12 15 0z m235 -20 c0 -5 -8 -10 -17
-10 -15 0 -16 2 -3 10 19 12 20 12 20 0z m-265 -20 c-3 -5 -12 -10 -18 -10 -7
0 -6 4 3 10 19 12 23 12 15 0z m-515 -47 c-1 -13 -74 -59 -105 -67 l-30 -8 24
21 c13 12 29 21 35 21 6 0 22 9 36 20 26 21 40 25 40 13z m930 -28 c-7 -9 -15
-13 -18 -10 -3 2 1 11 8 20 7 9 15 13 18 10 3 -2 -1 -11 -8 -20z m-142 -9 c-7
-8 -15 -12 -17 -11 -5 6 10 25 20 25 5 0 4 -6 -3 -14z m-923 -76 c-35 -28 -55
-37 -55 -25 0 7 73 55 84 55 5 0 -8 -13 -29 -30z m118 9 c-11 -12 -27 -19 -34
-16 -10 4 -7 8 9 12 12 4 22 11 22 16 0 5 6 9 12 9 7 0 3 -9 -9 -21z m4687
-39 c8 -5 11 -10 5 -10 -5 0 -17 5 -25 10 -8 5 -10 10 -5 10 6 0 17 -5 25 -10z
m-4295 -70 c-3 -5 -12 -10 -18 -10 -7 0 -6 4 3 10 19 12 23 12 15 0z m4790
-49 c10 -17 -11 -21 -31 -6 -18 14 -18 14 3 15 12 0 24 -4 28 -9z m-4745 -51
c5 8 12 11 15 8 4 -4 1 -13 -6 -21 -16 -17 -49 -10 -49 10 0 13 3 13 16 2 13
-10 17 -10 24 1z m-684 -105 c-11 -8 -25 -15 -30 -15 -6 1 0 7 14 15 32 19 40
18 16 0z m474 -41 c0 -12 -78 -82 -85 -76 -3 3 11 23 32 43 36 35 53 46 53 33z
m-95 -94 c-3 -5 -19 -10 -36 -10 -16 0 -29 5 -29 10 0 6 16 10 36 10 21 0 33
-4 29 -10z m-35 -34 c0 -2 -7 -6 -15 -10 -8 -3 -15 -1 -15 4 0 6 7 10 15 10 8
0 15 -2 15 -4z m620 -21 c0 -8 -4 -15 -10 -15 -5 0 -7 7 -4 15 4 8 8 15 10 15
2 0 4 -7 4 -15z m-895 -15 c-3 -5 -10 -10 -16 -10 -5 0 -9 5 -9 10 0 6 7 10
16 10 8 0 12 -4 9 -10z m105 -20 c-13 -11 -28 -20 -34 -20 -14 1 32 40 47 40
5 0 0 -9 -13 -20z m120 15 c0 -8 -23 -48 -39 -68 -11 -13 -12 -20 -3 -29 9 -9
12 -9 12 0 0 7 5 12 12 12 6 0 22 10 35 22 13 12 23 17 23 11 0 -14 -41 -50
-67 -58 -13 -3 -23 -11 -23 -16 0 -6 5 -7 12 -3 7 4 8 3 4 -5 -6 -9 -11 -9
-21 -1 -11 9 -20 6 -42 -14 -15 -14 -29 -24 -31 -22 -2 2 20 36 48 76 28 40
54 78 57 86 5 13 23 20 23 9z m-60 -23 c0 -4 -10 -13 -22 -21 -23 -14 -23 -14
-4 8 20 22 26 25 26 13z m673 -36 c-15 -19 -33 -35 -40 -35 -6 -1 3 15 20 34
40 45 58 46 20 1z m-603 -200 c0 -2 -13 -19 -30 -37 -16 -19 -30 -40 -30 -47
0 -15 -71 -94 -78 -88 -2 3 -15 1 -29 -5 -16 -6 -22 -6 -18 1 3 6 12 10 19 10
13 0 91 84 110 119 14 24 56 60 56 47z m5140 -66 c0 -13 -11 -13 -30 0 -12 8
-11 10 8 10 12 0 22 -4 22 -10z m-5010 -254 c0 -3 -4 -8 -10 -11 -5 -3 -10 -1
-10 4 0 6 5 11 10 11 6 0 10 -2 10 -4z m-190 -36 c-6 -11 -15 -20 -20 -20 -6
0 -2 9 7 20 10 11 19 20 21 20 1 0 -2 -9 -8 -20z m5108 -69 c3 -8 -1 -12 -9
-9 -7 2 -15 10 -17 17 -3 8 1 12 9 9 7 -2 15 -10 17 -17z m-5043 -191 c-3 -5
-11 -10 -16 -10 -6 0 -7 5 -4 10 3 6 11 10 16 10 6 0 7 -4 4 -10z m115 -214
c0 -2 -7 -9 -15 -16 -13 -11 -14 -10 -9 4 5 14 24 23 24 12z m454 -1025 c3 -5
-6 -17 -19 -27 -14 -10 -25 -24 -25 -31 0 -7 -4 -13 -9 -13 -5 0 -12 -12 -14
-27 -3 -23 -4 -22 -6 8 -1 27 6 45 27 67 29 33 37 37 46 23z m186 -1041 c0 -5
-4 -10 -10 -10 -5 0 -10 5 -10 10 0 6 5 10 10 10 6 0 10 -4 10 -10z m40 -24
c0 -3 -4 -8 -10 -11 -5 -3 -10 -1 -10 4 0 6 5 11 10 11 6 0 10 -2 10 -4z m190
-326 c-8 -5 -17 -7 -19 -4 -3 3 1 9 9 14 8 5 17 7 19 4 3 -3 -1 -9 -9 -14z
m510 -425 c0 -8 -4 -15 -10 -15 -5 0 -7 7 -4 15 4 8 8 15 10 15 2 0 4 -7 4
-15z m-170 -21 c0 -8 -5 -12 -10 -9 -6 4 -8 11 -5 16 9 14 15 11 15 -7z m1346
-143 c17 14 18 5 3 -22 -10 -20 -11 -20 -24 -2 -7 10 -11 22 -7 27 3 6 7 5 10
-2 3 -10 7 -10 18 -1z m-1011 -131 c3 -5 1 -10 -4 -10 -6 0 -11 5 -11 10 0 6
2 10 4 10 3 0 8 -4 11 -10z"/>
<path d="M1944 16159 c-3 -5 1 -9 10 -9 8 0 21 -3 30 -6 9 -3 16 -2 16 4 0 13
-49 22 -56 11z"/>
<path d="M1848 15753 c7 -3 16 -2 19 1 4 3 -2 6 -13 5 -11 0 -14 -3 -6 -6z"/>
<path d="M1957 15544 c-3 -3 -3 -12 -1 -19 7 -17 44 -7 44 11 0 14 -31 20 -43
8z"/>
<path d="M1980 15470 c0 -5 16 -10 35 -10 19 0 35 5 35 10 0 6 -16 10 -35 10
-19 0 -35 -4 -35 -10z"/>
<path d="M2262 15428 c6 -18 28 -21 28 -4 0 9 -7 16 -16 16 -9 0 -14 -5 -12
-12z"/>
<path d="M2134 15341 c4 -6 21 -11 37 -11 17 0 38 -4 47 -8 9 -4 35 -5 57 -1
39 6 37 8 -15 16 -83 13 -132 14 -126 4z"/>
<path d="M2288 15293 c6 -2 18 -2 25 0 6 3 1 5 -13 5 -14 0 -19 -2 -12 -5z"/>
<path d="M2400 15249 c0 -5 5 -7 10 -4 6 3 10 8 10 11 0 2 -4 4 -10 4 -5 0
-10 -5 -10 -11z"/>
<path d="M2248 15033 c6 -2 18 -2 25 0 6 3 1 5 -13 5 -14 0 -19 -2 -12 -5z"/>
<path d="M2240 15000 c0 -5 9 -10 20 -10 11 0 20 5 20 10 0 6 -9 10 -20 10
-11 0 -20 -4 -20 -10z"/>
<path d="M2620 12820 c0 -5 5 -10 10 -10 6 0 10 5 10 10 0 6 -4 10 -10 10 -5
0 -10 -4 -10 -10z"/>
<path d="M3600 12940 c0 -5 5 -10 11 -10 5 0 7 5 4 10 -3 6 -8 10 -11 10 -2 0
-4 -4 -4 -10z"/>
<path d="M3920 11916 c0 -9 8 -12 27 -8 25 5 25 6 8 13 -29 11 -35 10 -35 -5z"/>
<path d="M2088 10406 c-10 -7 -15 -15 -12 -18 10 -10 44 4 44 18 0 17 -10 17
-32 0z"/>
<path d="M2042 10368 c-7 -7 -12 -16 -12 -20 0 -15 15 -8 28 12 13 22 3 27
-16 8z"/>
<path d="M1930 10330 c0 -5 5 -10 10 -10 6 0 10 5 10 10 0 6 -4 10 -10 10 -5
0 -10 -4 -10 -10z"/>
<path d="M2451 9414 c-12 -15 -21 -40 -20 -58 l0 -31 15 39 c8 21 19 45 25 53
7 7 9 16 7 19 -3 3 -15 -7 -27 -22z"/>
<path d="M2608 9347 c-12 -29 -10 -63 3 -50 6 6 9 23 7 39 -2 24 -4 26 -10 11z"/>
<path d="M3141 9314 c0 -11 3 -14 6 -6 3 7 2 16 -1 19 -3 4 -6 -2 -5 -13z"/>
<path d="M3082 9242 c-26 -53 -27 -58 -9 -40 9 9 17 21 17 27 0 6 5 11 10 11
6 0 10 7 10 15 0 24 -14 17 -28 -13z"/>
<path d="M2990 9240 c-6 -11 -8 -20 -6 -20 3 0 10 9 16 20 6 11 8 20 6 20 -3
0 -10 -9 -16 -20z"/>
<path d="M3023 9214 c-12 -26 -12 -26 7 -9 20 18 26 35 13 35 -5 0 -13 -12
-20 -26z"/>
<path d="M2960 9200 c-9 -6 -10 -10 -3 -10 6 0 15 5 18 10 8 12 4 12 -15 0z"/>
<path d="M2870 8800 c-8 -5 -11 -12 -8 -16 4 -3 14 1 23 10 18 17 9 21 -15 6z"/>
<path d="M2523 8485 c-13 -14 -17 -35 -8 -35 10 0 43 39 38 44 -9 9 -17 7 -30
-9z"/>
<path d="M2320 8260 c0 -5 7 -10 15 -10 8 0 15 5 15 10 0 6 -7 10 -15 10 -8 0
-15 -4 -15 -10z"/>
<path d="M3306 8254 c-4 -9 -4 -19 -1 -22 2 -3 7 3 11 12 4 9 4 19 1 22 -2 3
-7 -3 -11 -12z"/>
<path d="M2040 7970 c0 -5 7 -10 15 -10 8 0 15 5 15 10 0 6 -7 10 -15 10 -8 0
-15 -4 -15 -10z"/>
<path d="M2118 7923 c7 -3 16 -2 19 1 4 3 -2 6 -13 5 -11 0 -14 -3 -6 -6z"/>
<path d="M1665 7010 c-3 -5 -1 -10 4 -10 6 0 11 5 11 10 0 6 -2 10 -4 10 -3 0
-8 -4 -11 -10z"/>
<path d="M2088 14883 c7 -3 16 -2 19 1 4 3 -2 6 -13 5 -11 0 -14 -3 -6 -6z"/>
<path d="M2203 14883 c9 -2 25 -2 35 0 9 3 1 5 -18 5 -19 0 -27 -2 -17 -5z"/>
<path d="M1750 11850 c0 -5 5 -10 10 -10 6 0 10 -5 10 -11 0 -5 -4 -8 -9 -5
-5 4 -7 -3 -4 -14 3 -11 0 -20 -6 -20 -15 0 -14 -25 3 -39 9 -8 116 -11 372
-9 l359 3 -130 17 c-71 9 -183 26 -249 38 -97 18 -122 20 -141 10 -13 -7 -29
-10 -37 -7 -7 3 -2 6 12 6 47 2 4 22 -76 36 -96 17 -114 18 -114 5z"/>
<path d="M1870 11714 c-81 -7 -180 -26 -186 -35 -3 -5 3 -9 13 -10 16 0 16 -1
-2 -9 -29 -12 -1 -12 50 1 25 6 42 15 39 20 -3 5 12 9 33 9 29 0 35 -3 23 -11
-11 -7 8 -9 65 -5 44 3 195 8 335 11 140 3 275 9 300 12 l45 7 -49 6 c-53 7
-592 10 -666 4z"/>
<path d="M2598 11683 c7 -3 16 -2 19 1 4 3 -2 6 -13 5 -11 0 -14 -3 -6 -6z"/>
<path d="M2780 11680 c0 -13 30 -13 50 0 11 7 7 10 -17 10 -18 0 -33 -4 -33
-10z"/>
<path d="M2090 11663 c-41 -2 -79 -8 -84 -13 -6 -6 -15 -10 -20 -10 -6 0 -4 5
4 10 21 14 -23 13 -113 -2 -61 -10 -67 -13 -42 -19 27 -5 25 -7 -23 -14 -49
-7 -83 -25 -48 -25 9 0 16 -7 16 -15 0 -8 5 -15 10 -15 6 0 10 -11 10 -25 0
-18 5 -25 19 -25 11 0 23 -4 26 -10 3 -6 -4 -10 -17 -10 -22 -1 -22 -1 -4 -15
10 -7 16 -18 13 -22 -10 -17 75 -3 146 22 39 14 75 24 81 22 6 -2 29 3 51 10
47 18 260 63 294 63 64 0 200 33 225 55 23 19 24 24 10 29 -21 8 -451 15 -554
9z"/>
<path d="M1758 11623 c6 -2 18 -2 25 0 6 3 1 5 -13 5 -14 0 -19 -2 -12 -5z"/>
<path d="M2580 11570 c-25 -5 -108 -18 -185 -29 -77 -12 -180 -32 -230 -45
-49 -13 -112 -27 -140 -31 -27 -4 -78 -18 -114 -31 -35 -13 -76 -24 -91 -24
-15 0 -33 -7 -40 -15 -7 -9 -8 -15 -2 -15 11 0 11 -18 -1 -37 -12 -19 68 -17
98 3 13 8 36 14 52 12 23 -2 15 -8 -44 -28 -40 -13 -73 -28 -73 -32 0 -5 -10
-8 -22 -8 -20 -1 -21 -2 -6 -11 10 -5 15 -16 12 -24 -6 -15 9 -20 49 -17 9 1
17 -1 17 -5 0 -3 -8 -12 -17 -20 -16 -13 -16 -13 3 -4 28 13 97 36 154 51 25
7 63 20 85 30 22 10 59 24 83 31 23 6 42 16 42 22 0 5 10 7 23 4 12 -4 29 -2
37 3 25 16 -11 22 -61 11 -24 -6 -52 -11 -62 -11 -32 0 3 24 53 37 25 6 59 17
75 24 24 10 26 13 12 16 -10 3 -32 -1 -50 -7 -32 -11 -209 -41 -214 -36 -12
12 260 81 436 111 52 9 106 22 120 30 14 7 52 16 85 20 32 4 53 11 46 15 -9 6
-9 9 1 13 21 8 -80 6 -131 -3z m-325 -80 c3 -5 1 -10 -4 -10 -6 0 -11 5 -11
10 0 6 2 10 4 10 3 0 8 -4 11 -10z m-408 -127 c0 -17 -15 -16 -32 1 -12 12
-11 14 9 12 12 0 23 -7 23 -13z"/>
<path d="M3008 11543 c6 -2 18 -2 25 0 6 3 1 5 -13 5 -14 0 -19 -2 -12 -5z"/>
<path d="M1785 11460 c-3 -5 3 -10 14 -10 12 0 21 5 21 10 0 6 -6 10 -14 10
-8 0 -18 -4 -21 -10z"/>
<path d="M2315 11391 c4 -8 2 -17 -6 -22 -9 -6 -10 -9 -2 -9 19 0 27 21 13 33
-10 9 -11 9 -5 -2z"/>
<path d="M2395 11390 c-3 -5 -2 -10 4 -10 5 0 13 5 16 10 3 6 2 10 -4 10 -5 0
-13 -4 -16 -10z"/>
<path d="M1738 11323 c7 -3 16 -2 19 1 4 3 -2 6 -13 5 -11 0 -14 -3 -6 -6z"/>
<path d="M5880 10930 c0 -5 7 -10 16 -10 8 0 12 5 9 10 -3 6 -10 10 -16 10 -5
0 -9 -4 -9 -10z"/>
<path d="M1702 10851 c-11 -7 -11 -9 0 -13 17 -6 38 1 38 13 0 11 -21 11 -38
0z"/>
<path d="M1794 10769 c-19 -22 -19 -22 4 -8 12 8 22 17 22 21 0 12 -6 9 -26
-13z"/>
<path d="M1692 10578 c-7 -7 -12 -19 -12 -27 0 -12 3 -12 12 -3 7 7 20 12 30
12 22 0 24 16 2 24 -20 8 -18 8 -32 -6z"/>
<path d="M1636 10151 c-4 -6 -3 -19 3 -28 9 -17 10 -17 17 0 8 21 -10 45 -20
28z"/>
<path d="M1652 10064 c-12 -8 -20 -19 -17 -24 3 -4 0 -10 -6 -12 -7 -2 -10
-10 -8 -17 4 -11 8 -10 22 3 9 9 13 24 10 33 -5 12 -2 15 9 11 9 -4 15 0 15 8
0 17 2 17 -25 -2z"/>
<path d="M1748 10003 c7 -3 16 -2 19 1 4 3 -2 6 -13 5 -11 0 -14 -3 -6 -6z"/>
<path d="M1640 9990 c-10 -6 -15 -26 -16 -57 0 -26 -4 -66 -9 -89 -6 -37 -5
-42 16 -47 18 -5 20 -9 11 -20 -16 -18 -4 -137 14 -144 7 -2 23 1 36 8 22 12
22 11 8 -6 -8 -11 -28 -31 -44 -45 -37 -34 -32 -56 8 -35 15 8 34 15 40 15 18
0 79 67 72 78 -3 6 -2 13 4 17 19 12 11 26 -9 15 -28 -15 -33 -12 -19 10 7 11
19 20 27 20 24 0 8 9 -28 15 -19 3 -39 1 -47 -6 -9 -8 -14 -8 -14 -1 0 6 5 14
11 17 6 4 8 13 5 21 -3 8 0 11 9 8 10 -4 12 0 8 15 -3 11 -10 18 -16 14 -6 -4
-8 3 -3 21 3 14 9 37 12 51 5 21 3 25 -18 25 -37 0 -51 20 -31 42 15 17 15 19
-1 37 -13 15 -14 20 -4 24 7 3 9 6 3 6 -5 0 -17 -4 -25 -9z"/>
<path d="M1800 9739 c0 -5 5 -7 10 -4 6 3 10 8 10 11 0 2 -4 4 -10 4 -5 0 -10
-5 -10 -11z"/>
<path d="M2020 9619 c0 -5 5 -7 10 -4 6 3 10 8 10 11 0 2 -4 4 -10 4 -5 0 -10
-5 -10 -11z"/>
<path d="M2100 9619 c0 -5 5 -7 10 -4 6 3 10 8 10 11 0 2 -4 4 -10 4 -5 0 -10
-5 -10 -11z"/>
<path d="M2077 9583 c3 -7 0 -13 -7 -13 -6 0 -8 -5 -5 -10 8 -13 22 -5 35 20
8 15 7 19 -9 17 -11 0 -17 -6 -14 -14z"/>
<path d="M1965 9490 c-3 -5 -1 -10 4 -10 6 0 11 5 11 10 0 6 -2 10 -4 10 -3 0
-8 -4 -11 -10z"/>
<path d="M6400 9460 c0 -5 5 -10 10 -10 6 0 10 5 10 10 0 6 -4 10 -10 10 -5 0
-10 -4 -10 -10z"/>
<path d="M2070 9439 c0 -5 5 -7 10 -4 6 3 10 8 10 11 0 2 -4 4 -10 4 -5 0 -10
-5 -10 -11z"/>
<path d="M2115 9420 c-3 -11 -11 -20 -16 -20 -5 0 -9 -4 -9 -10 0 -17 14 -10
38 21 18 22 20 29 8 29 -8 0 -18 -9 -21 -20z"/>
<path d="M1477 8014 c-8 -8 1 -24 14 -24 5 0 9 7 9 15 0 15 -12 20 -23 9z"/>
<path d="M1360 7779 c0 -5 5 -7 10 -4 6 3 10 8 10 11 0 2 -4 4 -10 4 -5 0 -10
-5 -10 -11z"/>
<path d="M1352 7724 c-7 -8 -8 -14 -3 -14 10 0 25 19 20 25 -2 1 -10 -3 -17
-11z"/>
<path d="M1340 7650 c0 -5 5 -10 10 -10 6 0 10 5 10 10 0 6 -4 10 -10 10 -5 0
-10 -4 -10 -10z"/>
<path d="M1367 7609 c-9 -5 -29 -21 -44 -35 -19 -18 -22 -24 -10 -24 9 0 27
10 40 23 13 12 32 27 43 34 24 15 -3 17 -29 2z"/>
<path d="M1410 7520 c-8 -5 -10 -10 -5 -10 6 0 17 5 25 10 8 5 11 10 5 10 -5
0 -17 -5 -25 -10z"/>
<path d="M1476 6855 c-10 -14 -25 -25 -32 -25 -17 0 -18 -17 -1 -23 6 -3 3 -6
-8 -6 -16 -1 -17 -3 -6 -10 10 -7 21 1 39 27 13 21 28 39 33 40 11 4 12 22 1
22 -4 0 -16 -11 -26 -25z"/>
<path d="M1390 6770 c-13 -8 -12 -10 3 -10 9 0 17 5 17 10 0 12 -1 12 -20 0z"/>
<path d="M1627 6203 c-4 -3 -7 -11 -7 -17 0 -6 5 -5 12 2 6 6 9 14 7 17 -3 3
-9 2 -12 -2z"/>
<path d="M1685 6021 c-6 -11 9 -23 19 -14 9 9 7 23 -3 23 -6 0 -12 -4 -16 -9z"/>
<path d="M1670 5984 c0 -8 5 -12 10 -9 6 4 8 11 5 16 -9 14 -15 11 -15 -7z"/>
<path d="M1806 5851 c-4 -7 -5 -15 -2 -18 9 -9 19 4 14 18 -4 11 -6 11 -12 0z"/>
<path d="M1915 5760 c-4 -12 -5 -24 -2 -27 3 -2 8 5 12 17 4 12 5 24 2 27 -3
2 -8 -5 -12 -17z"/>
<path d="M1948 5705 c-4 -17 -1 -25 8 -25 8 0 14 9 14 19 0 30 -17 34 -22 6z"/>
<path d="M2038 5443 c7 -3 16 -2 19 1 4 3 -2 6 -13 5 -11 0 -14 -3 -6 -6z"/>
<path d="M2000 5429 c0 -5 5 -7 10 -4 6 3 10 8 10 11 0 2 -4 4 -10 4 -5 0 -10
-5 -10 -11z"/>
<path d="M2027 5203 c-12 -11 -8 -23 8 -23 8 0 15 7 15 15 0 16 -12 20 -23 8z"/>
<path d="M2070 5130 c0 -5 5 -10 11 -10 5 0 7 5 4 10 -3 6 -8 10 -11 10 -2 0
-4 -4 -4 -10z"/>
<path d="M2064 5086 c-3 -9 -1 -22 5 -30 6 -7 7 -17 3 -21 -4 -5 -2 -6 3 -2 6
3 18 -1 28 -8 16 -11 17 -16 5 -37 -7 -12 -17 -26 -23 -30 -7 -5 -7 -8 0 -8
16 0 31 13 44 38 11 20 10 26 -8 41 -12 10 -21 22 -21 27 0 5 -7 18 -15 28
-13 17 -15 18 -21 2z"/>
<path d="M2160 5073 c0 -11 -6 -25 -12 -32 -11 -11 -10 -13 1 -9 18 5 33 45
21 53 -6 4 -10 -2 -10 -12z"/>
<path d="M2100 4920 c-9 -16 -8 -22 6 -27 16 -6 36 14 31 31 -6 19 -26 17 -37
-4z"/>
<path d="M2522 4085 c-20 -10 -21 -13 -7 -19 30 -11 45 -6 45 14 0 23 -5 23
-38 5z"/>
<path d="M2740 3250 c0 -11 4 -20 9 -20 11 0 22 26 14 34 -12 12 -23 5 -23
-14z"/>
<path d="M2847 3093 c-3 -18 1 -37 11 -53 l17 -25 3 25 c2 14 -3 38 -11 53
l-15 28 -5 -28z"/>
<path d="M3136 3064 c-3 -8 -10 -12 -16 -9 -12 7 -14 -34 -3 -62 6 -15 9 -13
14 12 l6 30 10 -25 11 -25 10 26 c12 31 5 69 -13 69 -7 0 -16 -7 -19 -16z"/>
<path d="M3165 2935 c-3 -8 -7 -22 -10 -31 -3 -9 -12 -14 -19 -11 -8 3 -17 -1
-20 -10 -8 -19 -9 -17 33 -32 59 -19 71 -15 67 22 -3 17 -7 40 -11 49 -9 23
-35 31 -40 13z"/>
<path d="M3250 2845 c0 -11 7 -14 26 -11 15 3 29 8 33 12 3 4 -2 4 -11 1 -10
-3 -20 -2 -23 3 -9 15 -25 12 -25 -5z"/>
</g>
</svg>
